<?xml version="1.0" encoding="UTF-8"?>
<!DOCTYPE svg PUBLIC "-//W3C//DTD SVG 1.1//EN" "http://www.w3.org/Graphics/SVG/1.1/DTD/svg11.dtd">
<!-- Creator: CorelDRAW 2018 (64 Bit Versão de avaliação) -->
<svg xmlns="http://www.w3.org/2000/svg" xml:space="preserve" width="89.3967mm" height="61.8964mm" version="1.1" style="shape-rendering:geometricPrecision; text-rendering:geometricPrecision; image-rendering:optimizeQuality; fill-rule:evenodd; clip-rule:evenodd"
viewBox="0 0 7652.88 5298.7"
 xmlns:xlink="http://www.w3.org/1999/xlink">
 <defs>
  <style type="text/css">
   <![CDATA[
    .fil0 {fill:black}
   ]]>
  </style>
 </defs>
 <g id="Camada_x0020_1">
  <metadata id="CorelCorpID_0Corel-Layer"/>
  <g id="_2506540948384">
   <g>
    <path class="fil0" d="M7418.86 3724.92c0,-32.32 -26.19,-58.5 -58.5,-58.5 -32.32,0 -58.5,26.19 -58.5,58.5 0,193.57 -157.46,351.04 -351.03,351.04 -32.32,0 -58.51,26.19 -58.51,58.5 0,32.32 26.2,58.5 58.51,58.5 258.08,0 468.03,-209.96 468.03,-468.04l0 0zm0 0z"/>
    <path class="fil0" d="M6200 4295.18c-30.92,46.65 -302.26,460.8 -302.26,634.94 0,199.79 160.75,368.58 351.03,368.58 190.28,0 351.04,-168.8 351.04,-368.58 0,-174.14 -271.35,-588.29 -302.27,-634.94 -10.85,-16.34 -29.16,-26.17 -48.77,-26.17 -19.6,0 -37.91,9.83 -48.77,26.17l0 0zm282.79 634.94c0,134.02 -109.35,251.57 -234.02,251.57 -124.67,0 -234.02,-117.55 -234.02,-251.57 0,-90.16 128.51,-325.46 234.02,-494.39 105.52,168.93 234.02,404.23 234.02,494.39zm0 0z"/>
    <path class="fil0" d="M5605.22 3274.43c-19.22,0 -37.2,9.43 -48.13,25.25 -37,53.55 -361.41,529.16 -361.41,735.31 0,225.82 183.72,409.54 409.54,409.54 225.81,0 409.53,-183.72 409.53,-409.54 0,-206.16 -324.4,-681.76 -361.4,-735.31 -10.92,-15.81 -28.91,-25.25 -48.13,-25.25zm0 1053.09c-161.3,0 -292.52,-131.23 -292.52,-292.53 0,-113.15 163.6,-400.39 292.52,-597.16 128.91,196.75 292.52,483.95 292.52,597.16 0,161.31 -131.23,292.53 -292.52,292.53zm0 0z"/>
    <path class="fil0" d="M6365.78 3666.42c0,32.32 -26.2,58.5 -58.51,58.5 -32.32,0 -58.5,-26.19 -58.5,-58.5 0,-32.32 26.19,-58.5 58.5,-58.5 32.32,0 58.51,26.19 58.51,58.5zm0 0z"/>
    <path class="fil0" d="M7000.15 2330.26c-10.77,-16.82 -29.35,-27.01 -49.32,-27.01 -19.97,0 -38.56,10.19 -49.32,27.01 -16.85,26.39 -414.52,651.21 -580.53,1091.71 -11.4,30.23 3.89,63.99 34.12,75.37 30.21,11.4 63.96,-3.86 75.37,-34.1 127.84,-339.28 407.23,-807.16 520.52,-991.18 200.01,323.44 584.89,998.4 584.89,1252.85 0,322.6 -262.45,585.05 -585.05,585.05 -261.19,0 -492.84,-175.4 -563.34,-426.56 -8.73,-31.1 -41.02,-49.25 -72.15,-40.52 -31.11,8.72 -49.23,41.04 -40.53,72.15 84.63,301.41 362.62,511.94 676.01,511.94 387.11,0 702.05,-314.94 702.05,-702.06 0,-322.49 -485.86,-1133.74 -652.74,-1394.66l0 0zm0 0z"/>
   </g>
   <g>
    <path class="fil0" d="M4564.8 2414.94c53.76,-31.64 71.78,-100.84 40.24,-154.57 -31.61,-53.87 -100.81,-71.89 -154.68,-40.28 -53.73,31.53 -71.75,100.73 -40.25,154.57 31.61,53.87 100.82,71.89 154.69,40.28z"/>
    <path class="fil0" d="M108.53 3458.26l571.74 974.26c220.74,375.96 706.19,502.44 1082.26,281.77l555 -325.79c159.11,-93.37 255.62,-253.13 275.12,-423.68 164.18,68.42 348.91,57.48 504.29,-33.7 159.06,-93.34 255.55,-253.05 275.08,-423.6 163.29,68.08 348.08,58.02 504.36,-33.79 159.06,-93.34 255.56,-253.04 275.09,-423.54 164.85,68.72 349.49,57.11 504.36,-33.77l241.34 -141.71c180.71,-105.93 322.44,-262.75 409.9,-453.53l391.6 -855.27c102.21,52.75 224.78,51.67 327.49,-8.59l249.93 -146.67c161.53,-94.8 215.56,-302.2 120.75,-463.74l-457.39 -779.44c-94.8,-161.51 -302.2,-215.56 -463.76,-120.76l-249.93 146.67c-102.48,60.14 -163.41,166.53 -167.21,281.7l-937.72 -75.24c-209.15,-16.68 -415.17,30.6 -595.7,136.64l-241.53 141.64c-159.08,93.35 -255.58,253.07 -275.12,423.58 -159.58,-66.53 -344.63,-59.8 -504.18,33.82 -159.3,93.41 -255.64,251.48 -275.49,423.59 -159.54,-66.41 -344.53,-59.74 -503.95,33.82 -154.78,90.84 -254.99,246.31 -275.41,423.79 -158.4,-66.13 -344.91,-59.77 -504,33.58l-555.1 325.66c-375.96,220.65 -502.39,706.15 -281.79,1082.27zm5231.57 -3070.01l249.93 -146.68c53.85,-31.59 122.96,-13.59 154.55,40.24l457.38 779.43c31.54,53.76 13.72,122.88 -40.24,154.55l-249.93 146.67c-53.85,31.59 -122.95,13.61 -154.55,-40.24l0 0 -457.39 -779.43c-31.6,-53.85 -13.61,-122.95 40.25,-154.54zm-1942.19 484.76l241.57 -141.67c140.42,-82.5 300.67,-119.23 463.32,-106.28l1031.95 82.81 397.85 677.99 -430.95 941.24c-68.03,148.38 -178.25,270.35 -318.85,352.76l-241.38 141.74c-161.17,94.59 -369.24,40.41 -463.81,-120.76l-800.45 -1364.03c-94.58,-161.18 -40.41,-369.23 120.74,-463.8zm-779.29 457.4c161.61,-94.83 368.85,-40.89 463.7,120.74l800.45 1364.02c94.56,161.13 40.4,369.15 -120.79,463.74 -161.39,94.84 -369.06,40.79 -463.75,-120.8l-800.4 -1363.92c-94.85,-161.5 -40.89,-368.98 120.79,-463.78zm-779.43 457.38c161.38,-94.71 368.75,-40.77 463.73,120.66 0.03,0.04 0.04,0.08 0.07,0.11l800.34 1363.82 0.01 0.02c0,0 0,0 0,0.01 94.53,161.22 40.37,369.29 -120.75,463.84 -161.09,94.53 -368.87,41.01 -463.8,-120.76l-800.37 -1363.88c-94.76,-161.5 -40.77,-369 120.77,-463.81zm-779.42 457.39c161.17,-94.59 369.23,-40.41 463.81,120.76l800.37 1363.88c94.58,161.17 40.4,369.24 -120.77,463.81l-555 325.78c-268.56,157.61 -615.38,67.29 -773.06,-201.29l-571.71 -974.21c-157.58,-268.67 -67.29,-615.48 201.27,-773.08l555.09 -325.66z"/>
    <path class="fil0" d="M4376.34 1870.58l-390.36 -665.2c-31.59,-53.8 -100.78,-71.82 -154.6,-40.25 -53.81,31.57 -71.83,100.78 -40.25,154.6l390.35 665.2c31.59,53.8 100.78,71.82 154.61,40.25 53.8,-31.58 71.82,-100.79 40.25,-154.6z"/>
   </g>
  </g>
 </g>
</svg>
