<?xml version="1.0" encoding="UTF-8"?>
<!DOCTYPE svg PUBLIC "-//W3C//DTD SVG 1.1//EN" "http://www.w3.org/Graphics/SVG/1.1/DTD/svg11.dtd">
<!-- Creator: CorelDRAW 2018 (64 Bit Versão de avaliação) -->
<svg xmlns="http://www.w3.org/2000/svg" xml:space="preserve" width="356.839mm" height="316.675mm" version="1.1" style="shape-rendering:geometricPrecision; text-rendering:geometricPrecision; image-rendering:optimizeQuality; fill-rule:evenodd; clip-rule:evenodd"
viewBox="0 0 35683.86 31667.49"
 xmlns:xlink="http://www.w3.org/1999/xlink">
 <defs>
  <style type="text/css">
   <![CDATA[
    .fil2 {fill:black}
    .fil1 {fill:#4DBBEB}
    .fil0 {fill:#606062}
    .fil3 {fill:#ED5151}
    .fil4 {fill:#4DBBEB;fill-rule:nonzero}
   ]]>
  </style>
 </defs>
 <g id="Camada_x0020_1">
  <metadata id="CorelCorpID_0Corel-Layer"/>
  <rect class="fil0" y="-0" width="35683.86" height="31667.49"/>
  <g id="_2767016450176">
   <g>
    <g>
     <path class="fil1" d="M25999.51 22584.55c0,484.32 -392.77,929.72 -877.09,929.72 -484.32,0 -877.09,-445.4 -877.09,-929.72 0,-484.31 877.09,-1806.8 877.09,-1806.8 0,0 877.09,1322.49 877.09,1806.8zm0 0z"/>
     <path class="fil1" d="M24227.79 19988.37c0,581.35 -471.16,1052.51 -1052.5,1052.51 -581.35,0 -1052.51,-471.16 -1052.51,-1052.51 0,-581.34 1052.51,-2105 1052.51,-2105 0,0 1052.5,1523.66 1052.5,2105zm0 0z"/>
     <path class="fil1" d="M29139.48 19058.66c0,1065.66 -863.93,1929.6 -1929.6,1929.6 -1065.66,0 -1929.59,-863.93 -1929.59,-1929.6 0,-1065.66 1929.59,-4087.22 1929.59,-4087.22 0,0 1929.6,3021.56 1929.6,4087.22zm0 0z"/>
    </g>
    <path class="fil2" d="M28613.23 19058.66c0,-96.89 -78.53,-175.42 -175.42,-175.42 -96.89,0 -175.42,78.53 -175.42,175.42 0,580.39 -472.12,1052.51 -1052.51,1052.51 -96.88,0 -175.41,78.53 -175.41,175.42 0,96.89 78.52,175.42 175.41,175.42 773.83,0 1403.34,-629.52 1403.34,-1403.34l0.01 -0.01zm0 0z"/>
    <path class="fil2" d="M24958.65 20768.5c-92.71,139.86 -906.28,1381.62 -906.28,1903.76 0,599.03 481.99,1105.13 1052.51,1105.13 570.52,0 1052.51,-506.1 1052.51,-1105.13 0,-522.14 -813.57,-1763.9 -906.28,-1903.76 -32.55,-48.99 -87.44,-78.46 -146.22,-78.46 -58.79,0 -113.69,29.47 -146.23,78.46l-0.01 0zm847.9 1903.76c0,401.82 -327.88,754.3 -701.67,754.3 -373.79,0 -701.67,-352.48 -701.67,-754.3 0,-270.32 385.3,-975.82 701.67,-1482.34 316.37,506.52 701.67,1212.02 701.67,1482.34zm0 0z"/>
    <path class="fil2" d="M23175.29 17707.95c-57.63,0 -111.56,28.3 -144.31,75.71 -110.94,160.55 -1083.61,1586.57 -1083.61,2204.71 0,677.08 550.84,1227.93 1227.92,1227.93 677.07,0 1227.92,-550.85 1227.92,-1227.93 0,-618.14 -972.68,-2044.16 -1083.62,-2204.71 -32.75,-47.41 -86.68,-75.71 -144.3,-75.71zm0 3157.51c-483.64,0 -877.09,-393.45 -877.09,-877.09 0,-339.25 490.55,-1200.51 877.09,-1790.49 386.53,589.91 877.08,1451.03 877.08,1790.49 0,483.64 -393.45,877.09 -877.08,877.09zm0 0z"/>
    <path class="fil2" d="M25455.71 18883.24c0,96.89 -78.52,175.42 -175.42,175.42 -96.89,0 -175.41,-78.52 -175.41,-175.42 0,-96.89 78.52,-175.41 175.41,-175.41 96.9,0 175.42,78.52 175.42,175.41zm0 0z"/>
    <path class="fil2" d="M27357.76 14877.01c-32.28,-50.43 -87.98,-80.99 -147.87,-80.99 -59.89,0 -115.6,30.56 -147.87,80.99 -50.5,79.14 -1242.87,1952.55 -1740.61,3273.32 -34.19,90.65 11.65,191.86 102.3,225.99 90.59,34.19 191.8,-11.58 225.99,-102.24 383.32,-1017.28 1221.01,-2420.14 1560.67,-2971.89 599.71,969.8 1753.69,2993.54 1753.69,3756.47 0,967.27 -786.91,1754.18 -1754.17,1754.18 -783.14,0 -1477.69,-525.91 -1689.08,-1278.97 -26.17,-93.26 -123,-147.67 -216.33,-121.5 -93.25,26.18 -147.59,123.07 -121.49,216.33 253.74,903.74 1087.25,1534.97 2026.9,1534.97 1160.7,0 2105.01,-944.3 2105.01,-2105.01 0,-966.92 -1456.79,-3399.33 -1957.14,-4181.65l0 0zm0 0z"/>
   </g>
   <g>
    <path class="fil1" d="M11474.02 21730.9l1664.1 -976.82c645.28,-378.67 861.45,-1208.91 482.78,-1854.19 378.33,644.71 1208.88,861.44 1854.19,482.78 645.28,-378.67 861.37,-1208.58 482.78,-1854.19 377.88,644.83 1208.71,862.1 1854.19,482.79 645.28,-378.67 861.37,-1208.59 482.7,-1853.87 378.67,645.28 1208.91,861.46 1854.19,482.79l723.85 -425.06c479.54,-281.13 860.72,-703.37 1092.38,-1208.64l1365.63 -2982.63 -183.52 -312.73 -3269.89 -262.36c-554.09,-44.18 -1108.6,82.69 -1587.9,364.23l-724.1 424.65c-645.28,378.67 -861.45,1208.9 -482.78,1854.18 -189.34,-322.64 -491.28,-538.1 -826.92,-625.49 -335.63,-87.39 -704.3,-46.54 -1026.95,142.8 -645.61,378.58 -861.78,1208.82 -482.78,1854.18 -378.77,-644.5 -1208.54,-861.67 -1854.19,-482.78 -645.28,378.67 -861.46,1208.91 -482.79,1854.19 -378.67,-645.28 -1208.91,-861.45 -1854.19,-482.78l-1664.34 976.41c-967.92,568 -1292.13,1813.19 -724.22,2781.45l526.31 896.86c568.36,968.02 1813.51,1292.23 2781.47,724.23z"/>
    <path class="fil3" d="M24257.71 12265.21l749.39 -439.76c322.64,-189.34 430.68,-604.29 241.35,-926.94l-535.04 -911.74c-189.33,-322.64 -604.29,-430.68 -926.93,-241.35l-749.39 439.77c-322.64,189.33 -430.68,604.28 -241.35,926.93l535.04 911.74c189.33,322.64 604.29,430.68 926.93,241.35z"/>
    <path class="fil2" d="M20055.75 15130.92c161.2,-94.88 215.23,-302.36 120.68,-463.47 -94.79,-161.53 -302.27,-215.55 -463.8,-120.76 -161.11,94.54 -215.13,302.02 -120.67,463.47 94.79,161.52 302.27,215.54 463.79,120.76z"/>
    <path class="fil2" d="M6694.38 18259.15l1714.25 2921.16c661.87,1127.24 2117.4,1506.47 3245,844.85l1664.07 -976.83c477.07,-279.96 766.45,-758.96 824.92,-1270.33 492.25,205.13 1046.15,172.33 1512.01,-101.06 476.9,-279.85 766.22,-758.73 824.78,-1270.08 489.61,204.13 1043.66,173.95 1512.23,-101.32 476.93,-279.88 766.24,-758.69 824.8,-1269.9 494.27,206.04 1047.87,171.24 1512.21,-101.24l723.64 -424.91c541.82,-317.62 966.78,-787.82 1229.01,-1359.85l1174.13 -2564.38c306.47,158.16 673.98,154.94 981.91,-25.76l749.39 -439.76c484.33,-284.22 646.32,-906.08 362.04,-1390.46l-1371.43 -2337.03c-284.23,-484.26 -906.08,-646.32 -1390.5,-362.05l-749.38 439.77c-307.27,180.31 -489.97,499.29 -501.35,844.63l-2811.59 -225.59c-627.12,-49.99 -1244.83,91.73 -1786.1,409.71l-724.18 424.69c-476.98,279.9 -766.34,758.77 -824.91,1270.02 -478.47,-199.48 -1033.31,-179.28 -1511.69,101.42 -477.62,280.08 -766.49,754.01 -825.99,1270.05 -478.35,-199.13 -1033.02,-179.09 -1511.03,101.42 -464.1,272.34 -764.56,738.51 -825.77,1270.66 -474.94,-198.27 -1034.15,-179.21 -1511.2,100.71l-1664.38 976.44c-1127.25,661.58 -1506.31,2117.25 -844.89,3245.02zm15686.02 -9204.93l749.39 -439.77c161.48,-94.73 368.65,-40.75 463.4,120.66l1371.37 2337c94.56,161.18 41.13,368.43 -120.66,463.4l-749.39 439.76c-161.43,94.71 -368.63,40.8 -463.4,-120.66l0 0 -1371.4 -2337c-94.73,-161.48 -40.83,-368.64 120.69,-463.39zm-5823.35 1453.48l724.3 -424.76c421.05,-247.36 901.53,-357.52 1389.21,-318.67l3094.15 248.28 1192.9 2032.83 -1292.14 2822.16c-203.97,444.89 -534.45,810.6 -956,1057.7l-723.76 424.98c-483.23,283.6 -1107.07,121.17 -1390.66,-362.09l-2400.02 -4089.8c-283.58,-483.27 -121.15,-1107.08 362.02,-1390.63zm-2336.56 1371.45c484.53,-284.34 1105.94,-122.62 1390.33,362l2400.02 4089.81c283.52,483.09 121.12,1106.81 -362.17,1390.42 -483.91,284.37 -1106.56,122.32 -1390.5,-362.18l-2399.86 -4089.49c-284.38,-484.23 -122.61,-1106.32 362.18,-1390.56zm-2337.01 1371.4c483.88,-283.99 1105.63,-122.25 1390.42,361.78 0.07,0.12 0.13,0.21 0.2,0.33l2399.69 4089.2 0.03 0.04c0,0 0,0 -0.01,0.03 283.44,483.39 121.05,1107.25 -362.05,1390.74 -483.01,283.44 -1105.99,122.95 -1390.62,-362.08l-2399.78 -4089.39c-284.11,-484.23 -122.22,-1106.4 362.12,-1390.65zm-2336.94 1371.41c483.23,-283.6 1107.07,-121.17 1390.66,362.09l2399.79 4089.36c283.56,483.25 121.12,1107.09 -362.14,1390.68l-1664.05 976.8c-805.25,472.57 -1845.12,201.78 -2317.92,-603.53l-1714.19 -2921c-472.48,-805.57 -201.73,-1845.42 603.47,-2317.96l1664.38 -976.44z"/>
    <path class="fil2" d="M19490.71 13498.75l-1170.43 -1994.5c-94.7,-161.34 -302.17,-215.36 -463.56,-120.7 -161.33,94.67 -215.37,302.2 -120.7,463.53l1170.44 1994.5c94.7,161.33 302.17,215.35 463.56,120.7 161.33,-94.7 215.36,-302.21 120.69,-463.53z"/>
   </g>
  </g>
  <path class="fil4" d="M4670.82 25308.45l-688.18 0 0 1785.83 688.18 0c278.06,0 497.45,-80.33 656.75,-240.26 159.99,-160.65 239.64,-377.25 239.64,-650.5 0,-268.95 -81.05,-485.55 -243.83,-649.07 -162.1,-164.24 -380.08,-246 -652.56,-246zm0 -266.8c355.62,0 642.08,107.58 859.36,323.46 217.29,215.88 326.28,496.3 326.28,842.71 0,348.56 -106.9,628.27 -320.7,838.41 -214.49,210.14 -502.33,314.85 -864.94,314.85l-969.05 0 0 -2319.43 969.05 0zm1641.86 2319.43l0 -1798.74 276.67 0 0 1798.74 -276.67 0zm1178.65 -692.82l683.31 0 -339.56 -687.79 -343.75 687.79zm-633.69 692.82l889.41 -1794.44 171.87 0 896.39 1794.44 -292.74 0 -227.07 -456.14 -922.94 0 -225.67 456.14 -289.25 0zm3287.24 -1531.94l-792.29 0 0 421.71 796.48 0c87.33,0 153.01,-17.93 197.72,-53.79 44.01,-35.14 66.37,-88.21 66.37,-158.5 0,-69.57 -22.36,-121.92 -66.37,-157.07 -44.71,-35.14 -111.78,-52.35 -201.91,-52.35zm92.22 684.21l-884.51 0 0 589.54 884.51 0c95.71,0 169.78,-25.82 222.87,-78.18 52.4,-51.64 78.95,-124.79 78.95,-218.74 0,-92.52 -26.55,-164.24 -78.95,-215.88 -53.09,-50.92 -127.16,-76.74 -222.87,-76.74zm-1157 847.73l0 -1790.14 1073.15 0c177.47,0 312.31,37.3 403.84,112.61 91.52,74.58 136.94,185.03 136.94,329.91 0,73.15 -13.98,137.7 -42.62,194.36 -28.65,56.66 -70.57,102.56 -125.06,137.7 97.11,55.94 170.47,124.08 219.38,205.12 49.6,80.33 74.05,171.41 74.05,271.82 0,167.11 -54.49,298.36 -162.78,394.46 -109,96.11 -259.21,144.16 -450.64,144.16l-1126.26 0zm2276.27 0l0 -1794.44 1639.06 0 0 262.5 -1366.58 0 0 447.53 897.08 0 0 258.19 -897.08 0 0 568.03 1442.04 0 0 258.19 -1714.52 0zm766.43 -2074.15l-187.94 0 426.88 -735.85 310.92 0 -549.86 735.85zm1752.96 2074.15l0 -1544.85 -737.8 0 0 -249.59 1748.07 0 0 249.59 -737.8 0 0 1544.85 -272.47 0zm1286.24 0l0 -1798.74 276.67 0 0 1798.74 -276.67 0zm2729.69 -438.93c-99.21,160.66 -229.86,283.3 -391.95,367.93 -161.39,84.63 -345.84,126.94 -551.95,126.94 -306.71,0 -559.63,-88.93 -758.75,-267.51 -198.43,-178.59 -297.64,-405.22 -297.64,-679.19 0,-274.69 99.21,-501.33 297.64,-681.35 199.12,-180.01 452.04,-269.66 758.75,-269.66 191.43,0 364.7,36.57 520.51,110.45 155.8,73.15 280.86,177.14 376.58,311.26l-217.29 154.92c-71.96,-101.85 -166.98,-180.74 -285.05,-235.96 -118.08,-55.23 -249.43,-82.48 -394.05,-82.48 -224.27,0 -409.42,65.26 -556.14,196.51 -146.72,130.53 -220.08,294.77 -220.08,492 0,197.23 73.36,361.47 220.78,492 147.42,131.25 332.56,196.52 555.44,196.52 155.11,0 292.74,-31.56 411.51,-93.96 118.77,-63.11 222.88,-160.65 313.01,-293.33l218.68 154.91zm308.81 209.43l132.74 -235.25c120.18,82.48 251.52,147.03 393.36,192.93 142.52,46.62 278.06,69.57 408.01,69.57 155.81,0 281.56,-32.27 377.29,-97.54 95.72,-65.27 143.23,-148.46 143.23,-250.3 0,-102.56 -44.03,-177.87 -131.36,-228.07 -87.33,-49.49 -224.97,-76.74 -413.61,-82.48 -318.59,-4.31 -537.27,-42.32 -656.04,-113.32 -118.78,-71.72 -178.17,-190.06 -178.17,-355.01 0,-154.2 64.98,-278.28 195.63,-372.23 130.65,-93.96 306.02,-140.57 526.1,-140.57 150.21,0 295.54,21.51 437.36,65.26 141.13,43.03 277.38,107.58 408.72,192.93l-137.64 232.37c-108.99,-75.3 -226.36,-133.4 -352.13,-175 -125.75,-40.88 -245.92,-61.67 -360.5,-61.67 -132.75,0 -239.64,23.66 -319.99,71 -80.35,48.05 -120.88,109.73 -120.88,186.47 0,79.61 40.53,136.27 121.58,169.98 81.04,33.71 222.17,50.2 422.69,50.2 278.77,0 488.37,48.05 630.2,144.88 141.82,96.82 213.08,240.26 213.08,431.03 0,169.26 -71.96,309.84 -215.88,422.44 -143.92,111.88 -330.47,167.82 -559.63,167.82 -169.78,0 -337.46,-25.1 -505.14,-74.59 -166.98,-49.48 -319.98,-119.77 -459.02,-210.85zm4036.9 229.5l-737.1 -2319.43 276.67 0 561.04 1790.14 575 -1790.14 251.52 0 573.61 1785.83 562.42 -1785.83 268.29 0 -735 2319.43 -204.71 0 -595.26 -1867.59 -589.68 1867.59 -206.8 0zm2753.44 -692.82l683.3 0 -339.55 -687.79 -343.75 687.79zm-633.69 692.82l889.41 -1794.44 171.87 0 896.39 1794.44 -292.75 0 -227.06 -456.14 -922.94 0 -225.67 456.14 -289.25 0zm2483.77 0l0 -1544.85 -737.8 0 0 -249.59 1748.07 0 0 249.59 -737.8 0 0 1544.85 -272.47 0zm1282.05 0l0 -1794.44 1639.07 0 0 262.5 -1366.59 0 0 447.53 897.08 0 0 258.19 -897.08 0 0 568.03 1442.04 0 0 258.19 -1714.52 0zm2381.05 -1045.68l929.23 0c94.32,0 166.28,-20.8 215.88,-63.11 49.61,-42.32 74.76,-102.56 74.76,-181.46 0,-78.17 -25.15,-138.42 -74.76,-179.3 -49.6,-41.59 -121.56,-62.39 -215.88,-62.39l-929.23 0 0 486.26zm0 262.5l0 783.18 -272.48 0 0 -1790.14 1201.71 0c178.85,0 318.59,44.47 419.9,132.69 101.3,88.21 151.61,210.85 151.61,367.92 0,126.95 -39.83,237.4 -120.17,330.63 -79.65,93.24 -183.75,150.61 -312.31,171.41l486.97 787.49 -296.93 0 -496.05 -783.18 -762.25 0z"/>
 </g>
</svg>
