<?xml version="1.0" encoding="UTF-8"?>
<!DOCTYPE svg PUBLIC "-//W3C//DTD SVG 1.1//EN" "http://www.w3.org/Graphics/SVG/1.1/DTD/svg11.dtd">
<!-- Creator: CorelDRAW 2018 (64 Bit Versão de avaliação) -->
<svg xmlns="http://www.w3.org/2000/svg" xml:space="preserve" width="212.372mm" height="212.019mm" version="1.1" style="shape-rendering:geometricPrecision; text-rendering:geometricPrecision; image-rendering:optimizeQuality; fill-rule:evenodd; clip-rule:evenodd"
viewBox="0 0 7692.42 7679.64"
 xmlns:xlink="http://www.w3.org/1999/xlink">
 <defs>
  <style type="text/css">
   <![CDATA[
    .fil11 {fill:#0B0B0B}
    .fil9 {fill:#130113}
    .fil8 {fill:#1B1818}
    .fil7 {fill:#5C0964}
    .fil0 {fill:#73007C}
    .fil21 {fill:#811E81}
    .fil4 {fill:#862487}
    .fil6 {fill:#880286}
    .fil20 {fill:#8A2C8B}
    .fil5 {fill:#913696}
    .fil24 {fill:#9CCAD3}
    .fil19 {fill:#AD7BAD}
    .fil23 {fill:#B68AB0}
    .fil15 {fill:#B985AB}
    .fil22 {fill:#C591B2}
    .fil25 {fill:#C7C759}
    .fil13 {fill:#CBC5AE}
    .fil18 {fill:#CDAD4D}
    .fil16 {fill:#D2955C}
    .fil14 {fill:#D2A9BB}
    .fil2 {fill:#D306B9}
    .fil12 {fill:#D4D4CB}
    .fil17 {fill:#D8D7CB}
    .fil10 {fill:#DADAD3}
    .fil27 {fill:#E3D9D7}
    .fil26 {fill:#E9E9E5}
    .fil3 {fill:#F9F9F9}
    .fil1 {fill:#FEFEFD}
   ]]>
  </style>
 </defs>
 <g id="Camada_x0020_1">
  <metadata id="CorelCorpID_0Corel-Layer"/>
  <g id="_2766665936320">
   <path class="fil0" d="M58.67 7679.64l7592.16 0c15.62,-167.55 4.73,-944.14 4.73,-1175.58 0,-97.25 22.01,-1033.65 -16.75,-1122.01 -0.95,-2.16 -4.28,-4 -5.01,-8.94 -0.73,-4.97 -3.27,-6.06 -5.27,-8.85 -74.53,67.16 -101.58,74.56 -168.67,140.48l-26.52 24.59c-12.51,12.17 -6.31,6.9 -18.9,19.52l-149.58 118.77c-29.49,40.48 -0.33,19.93 -12.79,49.8 -163.07,-3.63 -84.28,71.89 -237.13,84.37 -128.56,10.49 -141.19,-38.12 -206.39,-100.01 -1.88,-1.78 -4.55,-4.47 -6.44,-6.23l-42.43 -33.94c-41.45,-25.9 -79.4,-42.55 -120.54,-85.02 -49.55,-51.15 1.31,-20.36 -51.43,-48.93 -88.34,-47.84 -12.03,1.04 -72.49,-56.63l-194.04 -151.83c-72.15,-50.44 -26.01,-31.28 -62.2,-65.68 -33.18,-31.54 -66.9,-26.3 -123.81,-105.68l-169.81 -147.99c-141.56,-127.63 30.65,-12.06 -110.08,-92.55 -2.51,-1.44 -5.88,-3.09 -8.25,-4.73 -27.54,-19.03 -34.35,-42.45 -45.76,-54.54 -29.45,11.02 -15.71,7.2 -34.67,23.58 -3,2.59 -10.44,10.75 -13.15,13.44l-12.51 13.08c-41.17,42.34 -180.22,327.61 -233.1,369.64 -35.49,28.2 58.93,3.48 -31.21,15.81l-366.59 464.95 -482.59 514.5c-22.13,21.85 -34.25,26.79 -57.02,45.02l-538.61 458.91c-247.33,175.9 -184.61,171.85 -405.18,20.07l-348.2 -289.35c-54.53,-61.53 -33.98,-32.36 -95.31,-85.17 -126.73,-109.14 -249.33,-238.26 -374.76,-365.52 -311.41,-315.95 -422.44,-463.22 -666,-804.76 -181.68,-254.77 -261.96,-478.94 -385.45,-686.19 -25.45,-42.71 -35.85,-98.13 -54.69,-137.32 -84.79,-176.34 -87.35,-231.64 -145.34,-380.73 -30.84,-79.29 -60.55,-181.15 -82.52,-263.77l-111.97 -435.09c-23.43,-66.51 -109.62,-690.19 -114.73,-748.79 -18.13,-207.48 -113.61,-1206.52 -52.93,-1356.4 185.07,-44.21 900.02,-42.54 1282.82,-166.95l50.73 -33.74c16.47,-7.1 21.32,-7.6 37.35,-10.96 224.5,-46.96 50.01,-39.54 188.29,-56.99 42.16,-5.32 77.03,1.11 119.7,-5.87 57.87,-9.46 52.79,-26.57 100.12,-44.42 32.61,-12.3 62.53,-9.84 102.32,-22.93 24.45,-8.04 65.11,-21.85 93.96,-32.29l90.8 -46.07c-27.68,-38.1 -52.58,-120.69 -60.06,-166.47 -34.88,-213.37 -19.87,-80.64 -49.72,-181.89 -13.87,-47.04 -27.26,-148.17 -32.14,-198.42 -13.22,-136.03 -15.39,-22.05 -43.27,-169.92l50.87 -18.13c-49.41,-3.78 -40.37,-14.06 -76.33,-24.87 -58.04,-17.45 -2386.2,-6.91 -2641.26,-6.87 -438.66,0.07 -361.8,-87 -361.42,221.19 1.24,1013.38 -17.53,7336.2 11.2,7411.3z"/>
   <path class="fil1" d="M3796.03 1901.78l-4.21 57.4c31.96,17.56 108.83,97.28 124.63,123.65 -3.22,2.14 -8.27,3.35 -10.85,4.11l-53.83 5.45c73.05,117.44 298.11,220.13 327.1,328.36l-60.87 7.96c19.06,25.13 44.05,58.7 64.54,84.44l474.66 -284.57c60.52,-39.09 89.54,-69.89 179.7,-71.02 59.76,116.84 137.52,224.21 -26.24,315.39 -94.49,52.61 -178.06,140.99 -254.35,217.78l-142.07 161.09c160.66,143.98 207.13,98.55 244.94,161 -46.74,55.26 -177.58,24.93 -236.81,12.36 27.21,53.32 132.43,169.07 172.81,199.74 34.04,25.85 41.58,8.48 55.49,59.06 -61.92,37.55 -166.6,10.33 -232.15,-2.26 13.38,78.54 19.18,195.87 36.26,263.33 29.33,115.87 79.19,101.49 86.76,161.03l-3.06 18.28c-67.59,10.26 -184.87,-55.68 -214.41,-89.95 -4.34,125.07 123.96,332.91 180.86,384.03 221.21,198.72 298.15,72.77 390.12,44.18 2.83,8.41 7.52,29.49 10.98,40.34l9.88 25.88c0.46,-1.68 2,5.49 3.65,7.85 261.13,-62.29 206.51,-157.03 271.29,-222.91 34.78,15.77 17.37,13.42 41.05,43.64 -5.81,-67.45 -48.57,-139.85 -49.88,-181.16 60.48,-10.83 87.85,36.49 124.67,66.46 126.18,102.68 122.72,301.85 55.88,432.85 9.79,20.11 60.28,7.83 10.83,86.45 -52.71,83.81 -234.89,111.44 -322.53,62.01l-22.25 44.44c-0.9,2.17 -2.86,11.62 -3.48,9.76 -0.63,-1.88 -1.66,6.83 -3.34,9.88 -88.5,-18.71 -115.58,-62.5 -197.31,-99.69 -68.74,-31.27 -135.01,-41.13 -195.01,-75.89 13.25,56.98 163.77,299.65 204.09,373.99 34.16,62.96 67.52,151.53 105.45,187.92 59.52,57.1 114.61,73.39 97.53,198.46 -54.07,36.68 -136.85,34.94 -207.08,30.61 -201.24,-12.39 -17.08,-15.88 -332.38,-336.41 -175.05,-177.96 -421.3,-222.67 -666.67,-234.24 -61.52,12.64 -21.53,-10.75 -35.38,28.92l0.03 1851.67c48.44,31.24 53.76,3.45 138.49,-65.11l592.75 -531.35c41.02,-41.39 76.45,-73.07 114.63,-115.4l211.61 -235.86c159.61,-167.78 506,-692.79 628.58,-929.93 126.84,-245.39 182.58,-347.92 273.3,-621.02 123.2,-370.9 277.11,-1094.26 289,-1499.71l14.65 -215.46c7.2,-66.31 11.36,-120.7 11.24,-206.22 -0.36,-243.95 20.62,-128.21 -0.21,-421.17 -119.09,-0.22 -215.64,-14.33 -328.09,-29.33 -324.46,-43.28 -562.83,-82.33 -875.88,-159.3l-802.39 -233.32c-68.9,-22.5 -193.61,-76.99 -267.99,-75.35l1.28 826.87z"/>
   <path class="fil2" d="M3795.07 6413.45l-0.03 -1851.67c13.85,-39.67 -26.14,-16.27 35.38,-28.92 -72.21,-9.72 -67.22,24.08 -125.84,53.21 -46.8,23.26 -79.35,37.86 -132.95,72.01 -44.93,28.63 -85.32,38.23 -138.04,67.38 -45.3,25.05 -78.54,47.18 -118.51,72.94 -123.27,79.42 -48.95,158.75 -123.74,271.88 -66.14,100.04 -311.05,48.44 -323.69,37.44 -76.75,-66.78 -3.25,-148.17 33.53,-187.61 44.08,-47.25 53.78,-136.74 79.33,-201.98 100.31,-256.16 311.63,-585.18 275.05,-818.88 -9.47,-60.52 -129.19,-320.86 -163.26,-380.2 -88.69,2.61 -317.33,131.75 -392.95,17.43 -114.27,-172.76 -83.78,-231.5 1.21,-337.4 144.69,-180.29 192.64,-149 79.89,-255.94 -58.15,-55.15 -11.78,-13.46 -91.11,-21.94 -87.42,-338.01 -130.22,-150.91 -132.6,-391.97 -0.64,-65.41 -23.64,-76.97 -54.9,-111.46 -89.72,-99 -100.05,-148.28 -152.85,-192.5 -93.7,-78.5 -110.19,-143.67 64.3,-140.79 -26.1,-70.65 -19.19,-51.11 -66.79,-99.57 -41.07,-41.82 -30.61,-57.06 -58.76,-94.44 -30.27,-40.18 -132.09,-111.12 -89.92,-189.26 58.87,-20.68 175.79,114.76 234.32,147.14l238.47 166.61c45.76,-36.28 76.07,-103.44 133.2,-144.72 80.65,-58.28 116.69,-37.32 192.53,-62.2 71.05,-23.31 136.89,-75.8 214.63,-50.36 0.17,0.05 48.03,42.76 100.76,-3.97 27.42,-24.3 18.1,-36.9 61.67,-66.81 98.65,-35.25 50.45,61.47 211.3,106.84 70,19.74 168.15,69.53 211.3,108.04l-1.28 -826.87c-39.91,17.68 -82.68,26.18 -131.69,45.33 -590.89,230.85 -1472.67,411.11 -2100.15,468.56 -40.23,442.53 63.49,1226.77 152.68,1615.16 139.52,607.55 186.58,794.27 430.08,1333.01 45.62,100.93 99.35,195.33 156.69,291.08l220.54 329.19c114.27,145.62 214.02,282.41 349.02,417.44l677.7 650.6c40.55,34.88 78.77,59.74 119.89,97.15 40.3,36.66 68.13,69.42 125.56,91.02z"/>
   <path class="fil3" d="M1507.62 1673.93c0.05,-179.82 40.16,-135.86 215.75,-155.28 498.93,-55.2 1055.27,-179.08 1531.8,-320.71 724.89,-215.44 378.07,-241.56 1104.86,-11.96 176.01,55.6 343.83,101.06 539.15,150.16 89.13,22.4 195.12,37.1 281.91,63.73 129.13,39.62 906.76,125.47 907.55,125.92 75.86,42.72 35.07,283.77 32.62,339.83 -11.07,253.38 7.55,315.29 -29.16,636.06 -138.34,1208.86 -331.6,1824.27 -1022.26,2772.68l-290.49 348.37c-37.3,37.21 -58.58,70.32 -95.94,108.5 -243.4,248.78 -493.47,484.08 -768.29,701.2 -118.19,93.37 -155.64,34.73 -268.02,-61.68l-454.21 -388.84c-37.26,-37.1 -64.49,-66.81 -101.36,-103.25l-682.07 -800.16c-207.22,-289.22 -380.55,-618.46 -498.56,-958.06 -73.96,-212.83 -141.8,-429.17 -191.98,-651.9 -102.79,-456.23 -125,-639.5 -181.33,-1083.2 -32.66,-257.24 -30.02,-458.51 -29.96,-711.39zm-277.06 -392.6c5.75,664.87 54.55,1296.04 159.9,1879.22 108.29,599.45 284.51,1095.97 498.5,1532.82l368.82 614.04c1.55,2.16 3.83,5.15 5.43,7.26l149.06 196.45c45.46,63.57 87.32,125.21 142.34,176.34l577.26 598.05c2.1,1.66 5.17,3.87 7.28,5.51l643.23 532.92c66.58,34.5 60.51,10.07 84.8,-4.95 87.1,-53.88 170.28,-134.36 249.47,-198.44l425.35 -366.7c2.03,-1.67 4.97,-4.04 7,-5.71 2.03,-1.68 4.98,-4.05 6.99,-5.74 83.06,-69.65 152.08,-152.54 231.09,-228.46l184.82 -198.55c13.7,-13.01 20.35,-17.62 32.94,-31.07l252.62 -309.02c1.59,-2.14 3.75,-5.22 5.27,-7.42 19.64,-28.38 26.54,-45.52 52.85,-75.17 71.32,-80.39 124.4,-174.34 183.69,-263.39l247.22 -442.25c28.4,-58.44 57.17,-108.19 85.85,-169.72 84.11,-180.46 149.06,-361.82 213.52,-552.6 127.04,-376.01 222.12,-844.92 273.45,-1259.38 56.59,-456.82 95.73,-953.55 90.67,-1422.61 -115,-11.79 -252.65,-22.03 -366,-27.02 -616.16,-27.16 -1375.82,-215.16 -1945.84,-432.48 -354.85,-135.29 -212.15,-125.73 -564.78,2.78 -806.85,294.04 -1434.59,395.01 -2302.8,455.27z"/>
   <path class="fil4" d="M6134.22 1203.72l311.55 24.84c39.1,101.2 -9.87,788.3 -18.19,939.76 77.3,-10.11 213.53,-102.7 267.39,-138.21l105.26 -71.58c42.98,-31.57 101.4,-58.12 163.61,-61.18 103.09,-5.07 279.37,8.48 382.31,23.08 56.56,8.02 225.71,69.85 330.47,81.31 -12.74,-337.59 -7.73,-691.77 -5.3,-1030.61 1.81,-252.1 37.25,-768.88 -68.34,-945.64l-741.13 0c-83.61,-0.03 -169.88,-18.59 -208.29,34.32 -75.49,103.96 12.97,107.43 -274.37,224.13 -149.1,60.55 -309.26,42.53 -472.55,13.05 21.82,92.2 56.94,143.14 93.74,219.74l14.64 36.37c42.21,105.28 21.53,-12.22 73.27,154.45 38.44,123.8 77.24,172.18 70.15,353.39 -2.03,51.77 -21.48,88.68 -2.27,130.84l-21.94 11.94z"/>
   <path class="fil5" d="M6955.9 5024.46c27.04,33.6 20.73,25.49 79.24,25.45 37.89,-52.06 246.4,-201.96 304.87,-252.29l232.3 -216.12c90.44,-94.48 100.15,7.78 101.06,-236.91 0.88,-235.79 10.24,-2169.8 -4.48,-2274.53l-278.04 -89.16c-105.32,-24.95 -258.44,-21.74 -375.15,-27.59 -57.81,1.42 -22.35,-4.48 -61.58,15.35 19.41,468.85 0.68,1019.73 0.75,1519.76 0.08,511.38 -4.17,1025.22 1.03,1536.04z"/>
   <path class="fil6" d="M6376.6 2654.57c1.76,113.06 -32.24,312.49 -53.7,421.64 -47.58,242.02 -192.55,932.63 -302.84,1134.14 27.68,26.03 15.01,42.34 38.09,69.66l187.13 144.09c23.17,25.07 24.79,32.05 48.38,54.05 22.7,21.17 41.41,35.07 62.21,53.27 41.47,36.26 73.52,76.96 123.38,108.31 67.65,42.54 69.6,80.76 156.05,152.44 1.05,0.87 3.99,2.91 5.05,3.75l10.43 7.74c69.66,54.69 58.51,27.97 104.01,69.78 46.25,42.51 145.81,135.69 201.09,151.02 -5.19,-510.82 -0.95,-1024.66 -1.03,-1536.04 -0.08,-500.03 18.66,-1050.91 -0.75,-1519.76 39.24,-19.83 3.78,-13.93 61.58,-15.35 -94.12,-41.48 -125.54,52.74 -218.97,90.03 -71.78,28.64 -58.89,42.59 -97.74,65.34l-112.18 68.06c-117.13,63.39 -143.24,-3.92 -157.05,185.04 -4.23,57.9 -6.21,252.81 -53.17,292.78z"/>
   <path class="fil6" d="M4303.31 839.62c71.33,13.78 131.07,41.44 200.83,61.66 87.34,25.32 121.1,39.58 193.5,59.7 98.4,27.34 356.56,102.4 430.89,98.52l827.2 116.94c10.47,1.55 53.61,5.29 63.18,5.1 39.59,-0.79 69.73,-2.18 68.78,-31.23 -4.43,-135.74 25.24,-251.37 -30.84,-332.47 -37.72,-54.56 -18.69,-38.42 -39.47,-97.15 -13.15,-37.16 -25.94,-58.28 -40.46,-99.08 -20.56,-57.76 -21.43,-43.36 -46.55,-97.64 -22.08,-47.7 -33.69,-44.19 -52.32,-86.45 -68.77,-155.94 19.52,-148.86 -279.75,-69.97 -85.69,22.59 -169.82,31.56 -270.9,25.8 -103.03,-5.88 -123.44,-55.25 -174.84,-114.45 -1.75,-2.01 -4.62,-4.62 -6.32,-6.61 -1.66,-1.94 -4.53,-4.51 -6.09,-6.46 -1.51,-1.89 -4.23,-4.56 -5.59,-6.53 -96.14,-138.07 130.33,-236.28 -381.1,-234.41 -272.92,1 -860.41,-13.78 -1066.22,7.95 -18.61,59.19 -7.93,25.54 -1.09,74.08l130.64 525.17c72.58,29.92 52.6,-10.82 124.38,28.52l39.95 23.28c78.72,44.14 151.74,48.72 219.31,78.04 36.87,15.99 83.5,42.48 102.88,77.69z"/>
   <path class="fil7" d="M6302.68 24.64c-33.05,38.64 7.15,71.27 43.63,67.07 26.98,-3.11 36.78,-16.28 50.39,-31.66 38.56,-43.55 -35,-37.09 174.58,-36.11 -30.85,174.78 -217.16,215.97 -373.9,215.97 -204.81,0 -407.38,15.56 -415.79,-216.01l521.08 0.74zm-524.14 209.17c-99.28,40.95 -319.77,116.05 -436.11,106.77 -120.07,-9.58 -82.45,-42.07 -140.15,-124.91 -62.51,-89.75 -34.86,-87.34 -67.74,-194.6l477.25 2.24c-27.24,26.34 -35.5,36.84 -71.71,60.02 -43.05,27.55 -61.4,25.92 -43.02,92.45 94.94,2.87 129.17,-73.43 208.87,-105.94 53.43,158.61 58.22,81.9 72.62,163.97zm-5778.54 7445.83l58.67 0c-28.73,-75.1 -9.96,-6397.92 -11.2,-7411.3 -0.38,-308.19 -77.24,-221.12 361.42,-221.19 255.05,-0.04 2583.21,-10.57 2641.26,6.87 35.96,10.81 26.92,21.09 76.33,24.87l-50.87 18.13c27.87,147.87 30.04,33.9 43.27,169.92 4.88,50.24 18.27,151.37 32.14,198.42 29.85,101.25 14.84,-31.48 49.72,181.89 7.48,45.77 32.38,128.37 60.06,166.47l-90.8 46.07c-28.85,10.44 -69.51,24.25 -93.96,32.29 -39.79,13.08 -69.71,10.63 -102.32,22.93 -47.33,17.85 -42.26,34.96 -100.12,44.42 -42.67,6.98 -77.54,0.55 -119.7,5.87 -138.28,17.45 36.21,10.03 -188.29,56.99 -16.03,3.35 -20.88,3.85 -37.35,10.96l-50.73 33.74c87.91,3.57 563.37,-127.26 709.3,-180.19 81.78,-29.65 157.35,-35.9 194.59,-73.72l-34.37 7.77c-1.3,-48.2 -183.81,-647.29 -180.74,-799l398.77 1.7c47.35,105.65 49.4,220.16 85.8,325.61 21.38,61.94 78.81,287.1 75.21,339.78 54.99,-24.51 75.83,-37.53 156.46,-6.85 41.84,15.92 98.81,40.92 134.93,55.13 97.62,38.42 190.43,69.5 285.83,102.41 -19.38,-35.21 -66.02,-61.7 -102.88,-77.69 -67.58,-29.32 -140.6,-33.9 -219.31,-78.04l-39.95 -23.28c-71.78,-39.34 -51.8,1.4 -124.38,-28.52l-130.64 -525.17c-6.83,-48.54 -17.52,-14.89 1.09,-74.08 205.81,-21.74 793.3,-6.95 1066.22,-7.95 511.43,-1.87 284.96,96.34 381.1,234.41 1.37,1.96 4.08,4.63 5.59,6.53 1.56,1.95 4.44,4.52 6.09,6.46 1.71,1.99 4.58,4.6 6.32,6.61 51.4,59.2 71.81,108.57 174.84,114.45 101.08,5.77 185.21,-3.21 270.9,-25.8 299.27,-78.89 210.97,-85.97 279.75,69.97 18.64,42.26 30.24,38.76 52.32,86.45 25.12,54.28 25.99,39.88 46.55,97.64 14.52,40.8 27.31,61.92 40.46,99.08 20.79,58.72 1.75,42.59 39.47,97.15 56.07,81.11 26.41,196.73 30.84,332.47 0.95,29.05 -29.19,30.44 -68.78,31.23 -9.56,0.19 -52.71,-3.55 -63.18,-5.1l-827.2 -116.94c15.19,9.61 -0.88,2.72 32.43,15.58l95.59 23.2c41.05,9.28 72.16,16.48 117.46,24.1 308.01,51.79 442.71,61.8 760.2,81.35l21.94 -11.94c-19.21,-42.16 0.25,-79.07 2.27,-130.84 7.09,-181.22 -31.71,-229.59 -70.15,-353.39 -51.74,-166.67 -31.06,-49.17 -73.27,-154.45l-14.64 -36.37c-36.8,-76.6 -71.92,-127.55 -93.74,-219.74 163.29,29.48 323.45,47.51 472.55,-13.05 287.35,-116.7 198.89,-120.17 274.37,-224.13 38.42,-52.91 124.68,-34.35 208.29,-34.32l741.13 0c105.59,176.77 70.15,693.54 68.34,945.64 -2.43,338.84 -7.44,693.02 5.3,1030.61 -104.76,-11.47 -273.91,-73.29 -330.47,-81.31 -102.94,-14.6 -279.22,-28.15 -382.31,-23.08 -62.21,3.06 -120.63,29.61 -163.61,61.18l-105.26 71.58c-53.86,35.51 -190.09,128.1 -267.39,138.21l-50.98 486.25c46.96,-39.98 48.94,-234.89 53.17,-292.78 13.81,-188.96 39.92,-121.65 157.05,-185.04l112.18 -68.06c38.85,-22.75 25.96,-36.7 97.74,-65.34 93.43,-37.29 124.84,-131.51 218.97,-90.03 116.71,5.85 269.82,2.64 375.15,27.59l278.04 89.16c14.72,104.73 5.36,2038.74 4.48,2274.53 -0.91,244.69 -10.62,142.43 -101.06,236.91l-232.3 216.12c-58.47,50.33 -266.98,200.23 -304.87,252.29 -58.5,0.05 -52.2,8.15 -79.24,-25.45 -55.28,-15.33 -154.85,-108.51 -201.09,-151.02 -45.5,-41.82 -34.35,-15.09 -104.01,-69.78l-10.43 -7.74c-1.06,-0.84 -3.99,-2.88 -5.05,-3.75 -86.45,-71.68 -88.4,-109.9 -156.05,-152.44 -49.86,-31.35 -81.92,-72.04 -123.38,-108.31 -20.81,-18.19 -39.52,-32.1 -62.21,-53.27 -23.59,-22 -25.21,-28.99 -48.38,-54.05l-187.13 -144.09c-23.08,-27.33 -10.42,-43.63 -38.09,-69.66 -16.87,36.09 -4.58,18.3 -17.04,55.58 -6.97,20.84 -14.44,40.95 -21.31,58.13 63.53,47.2 131.98,104.16 195.91,168.34l602.71 522.43c288.61,228.35 276.87,116.38 673.66,-206.91 56.48,-46.01 182.9,-165.19 212.88,-174.22 19.86,70.68 7.96,466.03 3.35,566.99 -15.52,14.7 -27.69,19.15 -51.05,41.46 -78.83,75.26 -15.38,40.98 -110.23,96.9 -55.85,32.93 -0.5,22.61 -119.38,96.06 -47.06,29.07 -46.38,42.34 -89.62,76.14 -2.13,1.66 -5.36,3.68 -7.48,5.34l-191.43 152.22c-32.48,26.46 -81.08,86.06 -161.06,29.36l-354.8 -273.41c-16.44,-13.64 -36.74,-39.5 -51.67,-50.47 -33.48,-24.6 -29.22,-8.46 -67.83,-45.02 -44.57,-42.21 -16.85,-32.06 -79.72,-73.09 -18.05,-11.78 -14.91,-7.55 -30.14,-21.75 -51.98,-48.46 -41.05,-60.74 -114.08,-106.03l-222.7 -196.56c-33.31,-36.62 -72.45,-67.41 -110.97,-106.21 -40.93,-41.23 -5.94,-9.81 -56.84,-45.05 -35.15,-24.34 -36.81,-29.98 -48.86,-68.75l-16.17 26.31c-1.5,2.75 -3.14,6.14 -4.62,9l-180.24 331.35c-29.61,48.93 -113.82,148.58 -124.69,205.11 90.14,-12.33 -4.28,12.39 31.21,-15.81 52.89,-42.03 191.94,-327.3 233.1,-369.64l12.51 -13.08c2.71,-2.68 10.15,-10.85 13.15,-13.44 18.96,-16.38 5.22,-12.56 34.67,-23.58 11.41,12.09 18.22,35.52 45.76,54.54 2.38,1.64 5.74,3.29 8.25,4.73 140.73,80.48 -31.47,-35.08 110.08,92.55l169.81 147.99c56.91,79.38 90.63,74.14 123.81,105.68 36.19,34.4 -9.95,15.24 62.2,65.68l194.04 151.83c60.46,57.67 -15.84,8.79 72.49,56.63 52.75,28.57 1.88,-2.22 51.43,48.93 41.14,42.47 79.09,59.12 120.54,85.02l42.43 33.94c1.89,1.76 4.56,4.45 6.44,6.23 65.2,61.9 77.82,110.5 206.39,100.01 152.85,-12.48 74.06,-88 237.13,-84.37 12.46,-29.87 -16.69,-9.32 12.79,-49.8l149.58 -118.77c12.59,-12.62 6.39,-7.35 18.9,-19.52l26.52 -24.59c67.09,-65.92 94.15,-73.33 168.67,-140.48 2,2.79 4.54,3.88 5.27,8.85 0.73,4.94 4.06,6.78 5.01,8.94 38.76,88.37 16.75,1024.76 16.75,1122.01 0,231.44 10.89,1008.04 -4.73,1175.58l41.59 0 0 -7679.64 -7692.42 0 0 7679.64z"/>
   <path class="fil8" d="M5286.39 4319.27l-9.56 42.8 61.07 -17.51c-70.96,105.73 -223.36,44.07 -341.67,33.34l-13.85 66.82c-41.87,-26.4 -87.18,-60.16 -140.58,-87.32 -47.3,-24.06 -110.24,-39.81 -155.67,-60.19 -102.14,-45.83 -175.9,-161.54 -189.78,-235.99 3.4,16.56 -23.46,-19.94 9.44,10.99 3.45,3.25 13.16,11.15 17.95,15.09 9.4,7.74 23.89,19.9 36.37,28.76 96.46,68.45 245.12,80.02 298.14,2.64 14.74,27.19 3.78,16.06 -6.97,66.4 105.6,-14.82 161.33,-31.03 246.01,-73.13l84.38 -93.38c12.49,-19.43 8.45,-9.73 8.7,-20.24 8.64,66.07 1.83,55.87 28.19,78.85 75.58,-94.53 47.4,-124.73 29.52,-235.89 21.54,46.44 102.32,31.6 121.99,217.02 10.9,102.7 -17.78,207.74 -83.7,260.94zm-1700.43 -1070.48c-11.53,116.71 -60.11,195.9 -165.59,222.15 -101.07,25.16 -269.44,28.14 -327.97,-33.3 -146.19,-153.47 318.82,-274.26 493.56,-188.85zm-851.17 289.97c-28.69,-56.86 -82.42,-127.03 -76.45,-203.12 5.95,-75.83 290.93,-360.11 379.48,-427.93 1.86,-1.43 7.25,-1.48 8.62,-6.01 1.39,-4.59 5.76,-4.19 8.85,-5.95 11.65,53.93 22.1,83.56 46.59,135.4 29.73,62.93 43.15,67.86 68.17,112.26 -53.51,55.97 -99.02,99.53 -151.74,155.94 -86.32,92.35 -153.25,84.18 -132.09,139.53 46.69,14.49 74.28,-37.13 130.61,-57.44 13.1,45.86 23.51,63.85 44.23,94.19 -87.34,50.33 -210.75,79 -326.26,63.13zm1648.09 -648.55c29.85,18.21 160.2,94.21 181.17,113.28 -74.09,6.45 -152.82,-39.59 -197.7,-30.76 -22.08,61.66 164.74,234.24 205.39,292.33 -82.8,-4.06 -150.32,-36.38 -201.34,-31.91 -2.31,35.13 32.07,174.96 38.59,242.47 11.16,115.59 43.88,129.11 63.24,202.6 -115.66,-31.55 -160.59,-112.84 -201.87,-230.42 -26.94,-76.72 -84.72,-267.51 -86.83,-342.74l199.36 -214.86zm-1409.01 1.89c-14.84,25.26 -36.2,45.76 -50.89,67.12 -33.79,-13.95 -11.43,-9.54 -55.64,-25.27 12.71,43.69 13.55,28.86 17.54,65.73 -69.76,-70.98 -110.44,-72.81 -103.44,-212.11 49.58,36.16 110.92,74.38 192.43,104.52zm-265.09 -501.05c20.11,-44.83 9.46,-9.52 42.31,-48.64 46.37,-55.23 55.2,-117.03 50.43,-193.05 171.27,61.38 117.35,368.66 -92.74,241.68zm-31.75 -314.17c115.9,-12.62 94.44,205.76 19.13,255.25 -46.35,-19.95 -49.7,-32.44 -72.78,-72.46 11.37,-31.23 26.89,-45.88 36.55,-83.75 8.27,-32.4 7.94,-67.05 17.1,-99.04zm-107.34 236.02l-4.98 113.46c-36.19,-19.97 -95.47,-97.97 -127.41,-148.73 -30.64,-48.7 -25.47,-46.25 -65.13,-75.16 -37.86,-27.59 -41.92,-22.67 -47.3,-82.82 208.38,22.83 157.77,40.76 205.93,103.21 29.95,38.84 30.17,8.82 43.87,45.22 -9.53,-6.11 -31.49,-19.1 -46.3,-21.61 -67.77,-11.52 -37.77,-8 -59.33,18.43 20.04,14.64 68.05,31.35 100.64,48zm1153.04 462.05c28.78,10.63 14.37,5.28 48.83,12.47 14.35,-72.78 41.05,-104.36 70.29,-153.39 52.92,98.26 34.33,112.27 55.45,143.69 56.17,-30.07 114.81,-104.05 229.94,-157.89 6.56,-32.39 92.87,-79.38 120.62,-96.47 46.56,-28.68 83.33,-55.67 133.41,-84.83l288.87 -169.83c2.67,62.6 30.24,145.24 53.1,197.47l-427.35 441.87c-19.76,44.31 -27.05,38.14 -61.34,74.52 -22.93,24.33 -32.01,37.94 -53.43,61.77 -34.65,38.55 -74.83,75.14 -91.09,137.41l47.4 7.19c30.93,13.55 161.36,513.16 169.98,548.03 83.36,213.01 176.75,416.75 281.62,592.64 42.39,71.1 299.5,509.22 297.17,568.9l-209.42 4.17c-84.84,-90.26 -158.31,-199.54 -312.2,-271.7 -182.06,-85.37 -493.74,-207.3 -687,-85.24 -149.35,94.33 -250.62,137.15 -373,214.69 -33.85,21.45 -55.8,29.43 -78.82,63.43l-34.42 78.85 -228.76 14.33c0.99,-100.43 140.39,-421.62 199.46,-516.12 27.42,-43.86 42.53,-103.66 68.18,-161.03 162.83,-364.29 -16.35,-497.95 -89.17,-715.86l136.39 10.77c88.09,-2.64 157.32,-18.99 228.96,-53.7 76.5,-37.07 78.31,-102.91 127.24,-172.14 -7.98,-115.97 59.47,-258.86 48.85,-325.63 -47.82,10 -41.95,38.93 -56.43,93.44 -11.3,42.56 -16.91,82.67 -27.32,127.29 -225.13,-31 -201.83,-17.9 -417.06,14.52 36.89,-81.55 106.01,-79.09 148.98,-194.78 36.86,-99.21 -11.45,-188.23 -35.83,-276.52 77.18,-28.93 146.7,-7.07 184.55,-89.45 -44.76,-53.97 -148,-27.28 -224.19,-127.78 14.67,-12.46 1.12,-4.95 27.18,-15.65l61.04 -13.97c46.81,-11.13 32.92,-4.16 69.11,-34.27 -7.9,-32.39 -3.15,-14.86 -26.52,-38.16 -68.22,-68.02 -126.08,-130.25 -134.64,-254.12 0.8,1.08 25.95,37.8 29.02,40.5 18.3,16.08 -1.18,5.61 19.99,11.09 24.07,6.23 10.58,2.13 22.97,-4.05 11.6,-37.61 -88.26,-86.24 -42.64,-257.91 12.51,-47.09 74.18,-212.15 96.82,-245.95 111.78,-3.05 81.71,116.19 120.06,215.14 47.79,123.3 31.8,126.88 36.31,227.31 2.84,63.14 8.69,51.98 18.41,61.87 41.96,-30.52 27.75,-34.27 29.88,-99.2 203.71,269.41 303.73,285.9 140.55,652.26zm31.64 -794.83l62.58 43.54c-25.52,47.4 -32.3,-24.87 -19.37,55.06 10.38,64.2 252.69,231.98 306.66,297.69l-64.13 4.38 108.54 158.61c-76.18,52.18 -137,102.68 -213.01,158.14l-88.89 -168.29c-58.64,-386.94 -187.68,-276.51 -267.42,-499.12 -27.37,-34.49 -63.34,-165.52 -72.18,-209.34 72.12,-5.74 156.08,43.08 209.95,73.09 -67.36,15.86 -39.32,2.01 -63.76,26.38l101.03 59.86zm-537.91 237.67c21.31,142.47 89.74,187.28 121.22,235.59 -43.88,23.09 -88.42,19.62 -144.51,20.99 8.06,164.56 103.56,135.91 200.41,196.24 -169.55,89.27 -267.99,-29.51 -319.79,-0.51 -13.4,74.88 50.64,84.54 -7.47,153.71 -68.82,81.89 -230.95,-28.18 -268.22,-88.95 -53.02,-86.45 -10.63,-131.28 -63.6,-156.08 -13.94,37.98 7.81,200.12 -16.44,298.75 -39.41,-77.29 -64.59,-170.13 -86.72,-258.03 -48.86,-11.39 8.32,17.56 -37.16,0 -10.96,-67.06 10.12,-205.47 16.81,-280.15 72.47,28.24 75.87,171.97 242.89,119.76 96.02,-30.02 102.01,-160.83 63.18,-263.7 -26.14,-39.13 -52.08,-63.01 -97.26,-81.29 -79.98,-32.36 -11.75,-8.69 -99.96,-82.4 33.31,-70.31 92.6,-119.41 153.05,-164.51 90.31,15.69 -71.07,-22.5 28.62,12.36 3.53,1.23 13.94,5.39 17.47,5.98 28.34,4.72 9.2,8.27 41.3,-9.32 37.86,-20.75 92.97,-63.34 156.55,-81.35 27.63,-7.82 26.22,-8.65 41.81,2.95 20.04,14.91 17.52,33.72 21.99,32.06l111.72 -26.88c-27.9,80.96 -63.3,102.79 -66.71,191.76 -2.9,75.54 -18.44,151.54 -9.19,223.03zm613.94 2315.06c245.37,11.56 491.62,56.28 666.67,234.24 315.3,320.53 131.15,324.02 332.38,336.41 70.23,4.32 153.01,6.07 207.08,-30.61 17.08,-125.07 -38.01,-141.36 -97.53,-198.46 -37.93,-36.38 -71.29,-124.95 -105.45,-187.92 -40.33,-74.33 -190.84,-317.01 -204.09,-373.99 60,34.77 126.27,44.62 195.01,75.89 81.73,37.18 108.81,80.98 197.31,99.69 1.67,-3.05 2.71,-11.76 3.34,-9.88 0.62,1.87 2.58,-7.59 3.48,-9.76l22.25 -44.44c87.64,49.42 269.81,21.79 322.53,-62.01 49.45,-78.62 -1.04,-66.34 -10.83,-86.45 66.84,-130.99 70.3,-330.17 -55.88,-432.85 -36.82,-29.97 -64.19,-77.29 -124.67,-66.46 1.31,41.31 44.07,113.71 49.88,181.16 -23.67,-30.22 -6.26,-27.87 -41.05,-43.64 -64.78,65.88 -10.16,160.62 -271.29,222.91 -1.66,-2.37 -3.19,-9.54 -3.65,-7.85l-9.88 -25.88c-3.47,-10.85 -8.16,-31.93 -10.98,-40.34 -91.96,28.58 -168.9,154.54 -390.12,-44.18 -56.9,-51.12 -185.2,-258.96 -180.86,-384.03 29.54,34.27 146.82,100.21 214.41,89.95l3.06 -18.28c-7.56,-59.54 -57.43,-45.16 -86.76,-161.03 -17.08,-67.47 -22.87,-184.8 -36.26,-263.33 65.55,12.59 170.22,39.81 232.15,2.26 -13.91,-50.58 -21.45,-33.2 -55.49,-59.06 -40.38,-30.68 -145.6,-146.42 -172.81,-199.74 59.23,12.58 190.08,42.9 236.81,-12.36 -37.81,-62.45 -84.28,-17.02 -244.94,-161l142.07 -161.09c76.28,-76.79 159.85,-165.17 254.35,-217.78 163.76,-91.18 86,-198.55 26.24,-315.39 -90.16,1.14 -119.18,31.93 -179.7,71.02l-474.66 284.57c-20.5,-25.74 -45.49,-59.31 -64.54,-84.44l60.87 -7.96c-28.99,-108.23 -254.04,-210.92 -327.1,-328.36l53.83 -5.45c2.58,-0.76 7.63,-1.97 10.85,-4.11 -15.79,-26.37 -92.67,-106.09 -124.63,-123.65l4.21 -57.4c-43.15,-38.51 -141.3,-88.3 -211.3,-108.04 -160.85,-45.36 -112.66,-142.09 -211.3,-106.84 -43.57,29.91 -34.25,42.51 -61.67,66.81 -52.73,46.73 -100.59,4.02 -100.76,3.97 -77.74,-25.43 -143.58,27.05 -214.63,50.36 -75.84,24.88 -111.89,3.93 -192.53,62.2 -57.13,41.28 -87.44,108.44 -133.2,144.72l-238.47 -166.61c-58.53,-32.37 -175.45,-167.82 -234.32,-147.14 -42.17,78.14 59.65,149.08 89.92,189.26 28.15,37.38 17.69,52.62 58.76,94.44 47.59,48.46 40.69,28.92 66.79,99.57 -174.5,-2.88 -158.01,62.29 -64.3,140.79 52.79,44.22 63.13,93.5 152.85,192.5 31.26,34.49 54.25,46.06 54.9,111.46 2.38,241.06 45.18,53.96 132.6,391.97 79.34,8.48 32.96,-33.22 91.11,21.94 112.75,106.94 64.8,75.64 -79.89,255.94 -84.99,105.9 -115.49,164.64 -1.21,337.4 75.62,114.32 304.26,-14.82 392.95,-17.43 34.07,59.33 153.79,319.68 163.26,380.2 36.58,233.7 -174.74,562.72 -275.05,818.88 -25.55,65.24 -35.25,154.72 -79.33,201.98 -36.79,39.44 -110.28,120.83 -33.53,187.61 12.64,11 257.55,62.59 323.69,-37.44 74.79,-113.13 0.46,-192.46 123.74,-271.88 39.97,-25.75 73.21,-47.88 118.51,-72.94 52.72,-29.15 93.11,-38.76 138.04,-67.38 53.6,-34.15 86.15,-48.75 132.95,-72.01 58.61,-29.13 53.63,-62.93 125.84,-53.21z"/>
   <path class="fil9" d="M1230.56 1281.34c868.21,-60.27 1495.95,-161.23 2302.8,-455.27 352.62,-128.51 209.93,-138.07 564.78,-2.78 570.02,217.32 1329.68,405.32 1945.84,432.48 113.35,4.99 251.01,15.23 366,27.02 5.06,469.05 -34.08,965.79 -90.67,1422.61 -51.34,414.46 -146.41,883.37 -273.45,1259.38 -64.46,190.78 -129.41,372.14 -213.52,552.6 -28.68,61.53 -57.45,111.27 -85.85,169.72l-247.22 442.25c-59.29,89.05 -112.37,183 -183.69,263.39 -26.3,29.65 -33.2,46.79 -52.85,75.17 -1.52,2.2 -3.68,5.28 -5.27,7.42l-252.62 309.02c-12.6,13.45 -19.24,18.06 -32.94,31.07l-184.82 198.55c-79,75.92 -148.03,158.81 -231.09,228.46 -2.01,1.69 -4.97,4.06 -6.99,5.74 -2.02,1.67 -4.97,4.04 -7,5.71l-425.35 366.7c-79.19,64.08 -162.37,144.55 -249.47,198.44 -24.29,15.02 -18.22,39.45 -84.8,4.95l-643.23 -532.92c-2.12,-1.64 -5.18,-3.86 -7.28,-5.51l-577.26 -598.05c-55.02,-51.13 -96.88,-112.77 -142.34,-176.34l-149.06 -196.45c-1.59,-2.11 -3.88,-5.1 -5.43,-7.26l-368.82 -614.04c-213.99,-436.85 -390.21,-933.37 -498.5,-1532.82 -105.35,-583.18 -154.15,-1214.34 -159.9,-1879.22zm2495.54 -592.4c-111.47,36 -230.21,107.4 -344.67,124.15 -37.24,37.82 -112.82,44.07 -194.59,73.72 -145.93,52.92 -621.39,183.75 -709.3,180.19 -382.8,124.41 -1097.75,122.74 -1282.82,166.95 -60.68,149.88 34.81,1148.91 52.93,1356.4 5.12,58.6 91.3,682.28 114.73,748.79l111.97 435.09c21.97,82.62 51.68,184.48 82.52,263.77 57.99,149.09 60.54,204.39 145.34,380.73 18.84,39.18 29.24,94.61 54.69,137.32 123.49,207.25 203.77,431.42 385.45,686.19 243.56,341.54 354.59,488.81 666,804.76 125.44,127.27 248.04,256.39 374.76,365.52 61.32,52.81 40.77,23.64 95.31,85.17l348.2 289.35c220.57,151.77 157.85,155.83 405.18,-20.07l538.61 -458.91c22.77,-18.23 34.89,-23.17 57.02,-45.02l482.59 -514.5 366.59 -464.95c10.87,-56.53 95.08,-156.18 124.69,-205.11l180.24 -331.35c1.49,-2.87 3.13,-6.25 4.62,-9l16.17 -26.31c27.39,-62.55 63.73,-122.19 91.4,-185.54 31.64,-72.45 49.33,-125.08 87.97,-202.21 6.87,-17.18 14.34,-37.29 21.31,-58.13 12.46,-37.28 0.17,-19.49 17.04,-55.58 110.28,-201.51 255.25,-892.11 302.84,-1134.14 21.46,-109.15 55.46,-308.58 53.7,-421.64l50.98 -486.25c8.31,-151.45 57.28,-838.56 18.19,-939.76l-311.55 -24.84c-317.5,-19.54 -452.2,-29.56 -760.2,-81.35 -45.3,-7.62 -76.41,-14.82 -117.46,-24.1l-95.59 -23.2c-33.31,-12.85 -17.24,-5.97 -32.43,-15.58 -74.33,3.88 -332.49,-71.18 -430.89,-98.52 -72.41,-20.12 -106.16,-34.38 -193.5,-59.7 -69.76,-20.22 -129.5,-47.88 -200.83,-61.66 -95.39,-32.91 -188.21,-63.99 -285.83,-102.41 -36.12,-14.21 -93.09,-39.21 -134.93,-55.13 -80.63,-30.68 -101.47,-17.66 -156.46,6.85z"/>
   <path class="fil5" d="M5802.34 4711.81c12.05,38.77 13.71,44.41 48.86,68.75 50.91,35.25 15.91,3.82 56.84,45.05 38.52,38.8 77.66,69.6 110.97,106.21l222.7 196.56c73.03,45.29 62.1,57.57 114.08,106.03 15.23,14.2 12.08,9.97 30.14,21.75 62.87,41.03 35.15,30.89 79.72,73.09 38.6,36.56 34.35,20.43 67.83,45.02 14.93,10.97 35.23,36.83 51.67,50.47l354.8 273.41c79.98,56.7 128.59,-2.9 161.06,-29.36l191.43 -152.22c2.13,-1.66 5.36,-3.68 7.48,-5.34 43.24,-33.8 42.57,-47.07 89.62,-76.14 118.88,-73.45 63.53,-63.14 119.38,-96.06 94.85,-55.91 31.4,-21.64 110.23,-96.9 23.36,-22.31 35.54,-26.75 51.05,-41.46 4.61,-100.96 16.51,-496.32 -3.35,-566.99 -29.98,9.03 -156.4,128.21 -212.88,174.22 -396.79,323.29 -385.05,435.26 -673.66,206.91l-602.71 -522.43c-63.93,-64.18 -132.37,-121.14 -195.91,-168.34 -38.64,77.14 -56.33,129.76 -87.97,202.21 -27.67,63.35 -64.01,122.99 -91.4,185.54z"/>
   <path class="fil10" d="M4307.42 3736.97l-39.7 43.94c-132.74,-237.39 -126.53,-143.35 -202.82,-117.51 26.84,169.28 101.35,305.57 36.33,498.74 -55.44,164.7 -237.34,153.23 -400.46,174.09 -205.14,26.24 -288.39,-69.47 -295.19,-272.73 -12.6,-376.76 -84.04,-285.15 -114.63,-456.82 -28.13,-18.84 -17.5,-36.08 -13.51,-71.86l-136.39 -10.77c72.82,217.92 252,351.58 89.17,715.86 -25.64,57.36 -40.76,117.17 -68.18,161.03 -59.07,94.49 -198.47,415.69 -199.46,516.12l228.76 -14.33 34.42 -78.85c23.02,-34 44.97,-41.99 78.82,-63.43 122.38,-77.54 223.65,-120.36 373,-214.69 193.26,-122.06 504.94,-0.13 687,85.24 153.9,72.16 227.36,181.44 312.2,271.7l209.42 -4.17c2.33,-59.68 -254.78,-497.8 -297.17,-568.9 -104.87,-175.9 -198.26,-379.64 -281.62,-592.64z"/>
   <path class="fil11" d="M3795.07 6413.45c-57.43,-21.6 -85.27,-54.36 -125.56,-91.02 -41.13,-37.41 -79.35,-62.28 -119.89,-97.15l-677.7 -650.6c-134.99,-135.03 -234.74,-271.82 -349.02,-417.44l-220.54 -329.19c-57.35,-95.75 -111.07,-190.14 -156.69,-291.08 -243.5,-538.74 -290.55,-725.47 -430.08,-1333.01 -89.2,-388.4 -192.91,-1172.63 -152.68,-1615.16 627.48,-57.44 1509.25,-237.71 2100.15,-468.56 49.01,-19.15 91.79,-27.65 131.69,-45.33 74.38,-1.64 199.09,52.85 267.99,75.35l802.39 233.32c313.05,76.97 551.42,116.02 875.88,159.3 112.45,15 209,29.11 328.09,29.33 20.83,292.96 -0.15,177.22 0.21,421.17 0.13,85.52 -4.03,139.91 -11.24,206.22l-14.65 215.46c-11.9,405.45 -165.8,1128.8 -289,1499.71 -90.72,273.11 -146.45,375.64 -273.3,621.02 -122.58,237.14 -468.97,762.15 -628.58,929.93l-211.61 235.86c-38.18,42.34 -73.61,74.01 -114.63,115.4l-592.75 531.35c-84.73,68.56 -90.05,96.35 -138.49,65.11zm-2287.44 -4739.52c-0.06,252.88 -2.7,454.15 29.96,711.39 56.33,443.7 78.54,626.97 181.33,1083.2 50.18,222.73 118.02,439.07 191.98,651.9 118.01,339.6 291.34,668.84 498.56,958.06l682.07 800.16c36.87,36.44 64.1,66.15 101.36,103.25l454.21 388.84c112.39,96.41 149.84,155.05 268.02,61.68 274.82,-217.11 524.89,-452.42 768.29,-701.2 37.36,-38.18 58.64,-71.29 95.94,-108.5l290.49 -348.37c690.65,-948.41 883.91,-1563.82 1022.26,-2772.68 36.71,-320.77 18.1,-382.68 29.16,-636.06 2.45,-56.06 43.24,-297.11 -32.62,-339.83 -0.79,-0.44 -778.42,-86.29 -907.55,-125.92 -86.79,-26.63 -192.78,-41.33 -281.91,-63.73 -195.32,-49.09 -363.13,-94.55 -539.15,-150.16 -726.79,-229.6 -379.97,-203.48 -1104.86,11.96 -476.53,141.63 -1032.87,265.51 -1531.8,320.71 -175.59,19.43 -215.7,-24.53 -215.75,155.28z"/>
   <path class="fil12" d="M3682.5 2983.34c11.29,-140.7 74.46,-117.84 40.25,-208.37 163.18,-366.37 63.16,-382.85 -140.55,-652.26 -2.13,64.93 12.07,68.68 -29.88,99.2 -9.73,-9.89 -15.58,1.27 -18.41,-61.87 -4.51,-100.43 11.48,-104.01 -36.31,-227.31 -38.35,-98.95 -8.28,-218.19 -120.06,-215.14 -22.64,33.81 -84.3,198.86 -96.82,245.95 -45.62,171.67 54.23,220.31 42.64,257.91 -12.39,6.18 1.1,10.28 -22.97,4.05 -21.17,-5.48 -1.69,4.98 -19.99,-11.09 -3.07,-2.7 -28.22,-39.42 -29.02,-40.5 8.56,123.87 66.43,186.1 134.64,254.12 23.37,23.3 18.62,5.77 26.52,38.16 -36.19,30.11 -22.31,23.14 -69.11,34.27l-61.04 13.97c-26.06,10.7 -12.51,3.19 -27.18,15.65 76.19,100.5 179.42,73.82 224.19,127.78 -37.85,82.37 -107.37,60.52 -184.55,89.45 24.38,88.29 72.68,177.31 35.83,276.52 -42.97,115.69 -112.09,113.23 -148.98,194.78 215.23,-32.42 191.93,-45.52 417.06,-14.52 10.41,-44.62 16.02,-84.73 27.32,-127.29 14.48,-54.51 8.61,-83.45 56.43,-93.44z"/>
   <path class="fil13" d="M3722.75 2774.97c34.21,90.54 -28.96,67.67 -40.25,208.37 10.62,66.77 -56.83,209.66 -48.85,325.63 43.53,20.81 89.7,-13.34 156.75,5.38 41.01,11.45 106.15,60.39 124.02,80.54 62.34,70.29 81.18,172.67 135.52,258.35l14.96 10.16c76.29,-25.84 70.08,-119.88 202.82,117.51l39.7 -43.94c-8.61,-34.87 -139.05,-534.48 -169.98,-548.03l-47.4 -7.19c16.26,-62.27 56.44,-98.86 91.09,-137.41 21.42,-23.83 30.5,-37.44 53.43,-61.77 34.29,-36.38 41.59,-30.21 61.34,-74.52l-2.52 -32.91c-4.61,2.49 -9.14,5.56 -13.37,8.27l-52.5 34.28c-60.08,31.25 -134.07,6.05 -148.19,-58.96 -11.07,-50.99 3.09,-133.93 20.89,-175.89 6.76,-15.94 6.73,-13.89 12.99,-28.21 2.56,-5.87 12.6,-30.18 14.06,-34.78 -115.13,53.85 -173.77,127.82 -229.94,157.89 -21.12,-31.43 -2.53,-45.44 -55.45,-143.69 -29.24,49.03 -55.94,80.62 -70.29,153.39 -34.46,-7.19 -20.05,-1.83 -48.83,-12.47z"/>
   <path class="fil14" d="M4064.9 3663.39l-14.96 -10.16c23.21,89.29 -81.15,170.28 -129.21,216.1 -31.01,29.57 -55.04,52.24 -115.56,65.84 -190.79,42.88 -291.1,-3.92 -343.37,-168.33 -39.26,-123.49 -39.25,-136 -170.84,-160.17 30.59,171.68 102.03,80.07 114.63,456.82 6.8,203.26 90.05,298.97 295.19,272.73 163.11,-20.86 345.02,-9.39 400.46,-174.09 65.02,-193.18 -9.5,-329.46 -36.33,-498.74z"/>
   <path class="fil5" d="M3381.43 813.08c114.46,-16.75 233.2,-88.14 344.67,-124.15 3.6,-52.68 -53.83,-277.84 -75.21,-339.78 -36.4,-105.44 -38.46,-219.96 -85.8,-325.61l-398.77 -1.7c-3.08,151.72 179.44,750.8 180.74,799l34.37 -7.77z"/>
   <path class="fil15" d="M3277.45 3534.81c-3.99,35.79 -14.62,53.03 13.51,71.86 131.59,24.17 131.58,36.69 170.84,160.17 52.27,164.42 152.58,211.21 343.37,168.33 60.52,-13.6 84.54,-36.27 115.56,-65.84 48.06,-45.82 152.42,-126.81 129.21,-216.1 -54.34,-85.69 -73.18,-188.06 -135.52,-258.35 -17.87,-20.15 -83.02,-69.09 -124.02,-80.54 -67.05,-18.72 -113.22,15.43 -156.75,-5.38 -48.93,69.23 -50.74,135.07 -127.24,172.14 -71.64,34.71 -140.88,51.06 -228.96,53.7z"/>
   <path class="fil16" d="M2917.09 2195.41c38.83,102.87 32.84,233.69 -63.18,263.7 -167.02,52.21 -170.43,-91.52 -242.89,-119.76 -6.69,74.68 -27.77,213.09 -16.81,280.15 45.48,17.56 -11.71,-11.39 37.16,0 22.13,87.9 47.31,180.74 86.72,258.03 24.25,-98.64 2.5,-260.77 16.44,-298.75 52.96,24.79 10.58,69.63 63.6,156.08 37.28,60.78 199.41,170.84 268.22,88.95 58.12,-69.16 -5.93,-78.83 7.47,-153.71 51.8,-28.99 150.24,89.79 319.79,0.51 -96.85,-60.33 -192.35,-31.68 -200.41,-196.24 56.1,-1.36 100.63,2.1 144.51,-20.99 -31.48,-48.31 -99.91,-93.12 -121.22,-235.59 -45.48,-25.72 25.69,-34.65 -85.77,-50.65 -47.01,-6.75 -27.31,7.76 -73.21,-26.14 -44.07,-32.55 -78.21,22.89 -140.41,54.4z"/>
   <path class="fil12" d="M4127.26 2619.84c-1.46,4.6 -11.5,28.91 -14.06,34.78 -6.27,14.33 -6.23,12.27 -12.99,28.21 -17.8,41.97 -31.96,124.9 -20.89,175.89 14.11,65.01 88.1,90.21 148.19,58.96l52.5 -34.28c4.23,-2.71 8.76,-5.78 13.37,-8.27l2.52 32.91 427.35 -441.87c-22.86,-52.23 -50.43,-134.87 -53.1,-197.47l-288.87 169.83c-50.07,29.16 -86.85,56.15 -133.41,84.83 -27.75,17.09 -114.05,64.08 -120.62,96.47z"/>
   <path class="fil17" d="M2734.8 3538.77c115.51,15.87 238.92,-12.79 326.26,-63.13 -20.72,-30.35 -31.12,-48.33 -44.23,-94.19 -56.33,20.31 -83.92,71.93 -130.61,57.44 -21.16,-55.35 45.78,-47.18 132.09,-139.53 52.72,-56.41 98.24,-99.98 151.74,-155.94 -25.02,-44.4 -38.45,-49.33 -68.17,-112.26 -24.49,-51.84 -34.94,-81.47 -46.59,-135.4 -3.08,1.77 -7.45,1.36 -8.85,5.95 -1.38,4.53 -6.76,4.58 -8.62,6.01 -88.54,67.82 -373.53,352.1 -379.48,427.93 -5.97,76.09 47.75,146.26 76.45,203.12z"/>
   <path class="fil18" d="M3579.35 2030.14c79.74,222.61 208.78,112.18 267.42,499.12l88.89 168.29c76.01,-55.45 136.83,-105.95 213.01,-158.14l-108.54 -158.61 64.13 -4.38c-53.97,-65.72 -296.28,-233.5 -306.66,-297.69 -12.92,-79.93 -6.14,-7.66 19.37,-55.06l-62.58 -43.54c-46.06,48.26 -108.16,61.79 -175.04,50z"/>
   <path class="fil19" d="M2917.09 2195.41c62.21,-31.51 96.34,-86.95 140.41,-54.4 45.9,33.9 26.2,19.39 73.21,26.14 111.46,16 40.29,24.93 85.77,50.65 -9.24,-71.49 6.29,-147.48 9.19,-223.03 3.42,-88.97 38.81,-110.8 66.71,-191.76l-111.72 26.88c-4.47,1.66 -1.96,-17.15 -21.99,-32.06 -15.6,-11.6 -14.18,-10.77 -41.81,-2.95 -63.58,18 -118.69,60.6 -156.55,81.35 -32.1,17.59 -12.95,14.04 -41.3,9.32 -3.54,-0.59 -13.95,-4.75 -17.47,-5.98 -99.69,-34.87 61.69,3.33 -28.62,-12.36 -60.44,45.1 -119.74,94.2 -153.05,164.51 88.21,73.71 19.98,50.03 99.96,82.4 45.18,18.28 71.12,42.16 97.26,81.29z"/>
   <path class="fil20" d="M5778.54 233.81c-14.4,-82.07 -19.19,-5.36 -72.62,-163.97 -79.7,32.51 -113.93,108.8 -208.87,105.94 -18.38,-66.52 -0.03,-64.9 43.02,-92.45 36.21,-23.18 44.47,-33.69 71.71,-60.02l-477.25 -2.24c32.88,107.27 5.23,104.85 67.74,194.6 57.7,82.84 20.08,115.33 140.15,124.91 116.34,9.29 336.83,-65.81 436.11,-106.77z"/>
   <path class="fil16" d="M5286.39 4319.27c-66.53,-55.43 -93.75,-172.54 -189.08,-207.3 -84.68,42.1 -140.41,58.31 -246.01,73.13 10.75,-50.34 21.71,-39.21 6.97,-66.4 -53.02,77.38 -201.68,65.81 -298.14,-2.64 -12.48,-8.86 -26.97,-21.02 -36.37,-28.76 -4.78,-3.94 -14.5,-11.84 -17.95,-15.09 -32.9,-30.93 -6.04,5.57 -9.44,-10.99 13.88,74.45 87.64,190.16 189.78,235.99 45.42,20.38 108.36,36.12 155.67,60.19 53.39,27.16 98.71,60.92 140.58,87.32l13.85 -66.82c118.31,10.73 270.71,72.39 341.67,-33.34l-61.07 17.51 9.56 -42.8z"/>
   <path class="fil21" d="M5781.6 23.9c8.41,231.56 210.98,216.01 415.79,216.01 156.74,0 343.05,-41.18 373.9,-215.97 -209.58,-0.99 -136.02,-7.44 -174.58,36.11 -13.62,15.38 -23.41,28.55 -50.39,31.66 -36.47,4.2 -76.67,-28.42 -43.63,-67.07l-521.08 -0.74z"/>
   <path class="fil19" d="M4183.53 3105.08c2.12,75.23 59.9,266.01 86.83,342.74 41.28,117.57 86.21,198.87 201.87,230.42 -19.36,-73.49 -52.08,-87.01 -63.24,-202.6 -6.52,-67.51 -40.9,-207.34 -38.59,-242.47 51.03,-4.47 118.54,27.85 201.34,31.91 -40.65,-58.09 -227.47,-230.67 -205.39,-292.33 44.88,-8.84 123.61,37.2 197.7,30.76 -20.96,-19.07 -151.31,-95.06 -181.17,-113.28l-199.36 214.86z"/>
   <path class="fil22" d="M3585.97 3248.8c-174.74,-85.41 -639.76,35.38 -493.56,188.85 58.53,61.45 226.9,58.46 327.97,33.3 105.48,-26.25 154.06,-105.44 165.59,-222.15z"/>
   <path class="fil23" d="M5097.31 4111.98c95.33,34.76 122.55,151.87 189.08,207.3 65.92,-53.19 94.6,-158.23 83.7,-260.94 -19.67,-185.42 -100.46,-170.58 -121.99,-217.02 17.87,111.16 46.05,141.36 -29.52,235.89 -26.36,-22.98 -19.56,-12.78 -28.19,-78.85 -0.25,10.51 3.79,0.81 -8.7,20.24l-84.38 93.38z"/>
   <path class="fil24" d="M3579.35 2030.14c66.87,11.79 128.97,-1.75 175.04,-50l-101.03 -59.86c24.45,-24.37 -3.6,-10.52 63.76,-26.38 -53.87,-30.01 -137.83,-78.83 -209.95,-73.09 8.84,43.82 44.81,174.85 72.18,209.34z"/>
   <path class="fil25" d="M2708.8 2391.06c210.09,126.97 264.01,-180.3 92.74,-241.68 4.77,76.01 -4.05,137.82 -50.43,193.05 -32.85,39.12 -22.2,3.8 -42.31,48.64z"/>
   <path class="fil26" d="M2564.73 2426.38l4.98 -113.46c-32.58,-16.65 -80.6,-33.36 -100.64,-48 21.56,-26.43 -8.43,-29.95 59.33,-18.43 14.81,2.52 36.77,15.5 46.3,21.61 -13.7,-36.4 -13.92,-6.38 -43.87,-45.22 -48.16,-62.46 2.45,-80.39 -205.93,-103.21 5.38,60.15 9.44,55.23 47.3,82.82 39.66,28.9 34.49,26.46 65.13,75.16 31.94,50.76 91.22,128.76 127.41,148.73z"/>
   <path class="fil18" d="M2677.05 2076.9c-9.16,31.99 -8.83,66.64 -17.1,99.04 -9.66,37.87 -25.18,52.52 -36.55,83.75 23.08,40.02 26.43,52.51 72.78,72.46 75.31,-49.49 96.77,-267.88 -19.13,-255.25z"/>
   <path class="fil27" d="M2884.89 2999.7c-4,-36.87 -4.84,-22.04 -17.54,-65.73 44.21,15.73 21.85,11.32 55.64,25.27 14.69,-21.36 36.06,-41.86 50.89,-67.12 -81.52,-30.14 -142.85,-68.36 -192.43,-104.52 -6.99,139.3 33.68,141.13 103.44,212.11z"/>
  </g>
 </g>
</svg>
