<?xml version="1.0" encoding="UTF-8"?>
<!DOCTYPE svg PUBLIC "-//W3C//DTD SVG 1.1//EN" "http://www.w3.org/Graphics/SVG/1.1/DTD/svg11.dtd">
<!-- Creator: CorelDRAW 2018 (64 Bit Versão de avaliação) -->
<svg xmlns="http://www.w3.org/2000/svg" xml:space="preserve" width="394.192mm" height="385.154mm" version="1.1" style="shape-rendering:geometricPrecision; text-rendering:geometricPrecision; image-rendering:optimizeQuality; fill-rule:evenodd; clip-rule:evenodd"
viewBox="0 0 46467.18 45401.79"
 xmlns:xlink="http://www.w3.org/1999/xlink">
 <defs>
  <style type="text/css">
   <![CDATA[
    .fil2 {fill:black}
    .fil0 {fill:#006FA7}
    .fil3 {fill:#109CD8}
    .fil1 {fill:#61CEFF}
    .fil4 {fill:black;fill-rule:nonzero}
   ]]>
  </style>
 </defs>
 <g id="Camada_x0020_1">
  <metadata id="CorelCorpID_0Corel-Layer"/>
  <ellipse class="fil0" cx="23233.59" cy="22700.89" rx="23233.59" ry="22700.89"/>
  <g id="_2506534692560">
   <g>
    <g>
     <path class="fil1" d="M29325.73 30658.7c0,570.91 -463,1095.95 -1033.91,1095.95 -570.91,0 -1033.91,-525.04 -1033.91,-1095.95 0,-570.9 1033.91,-2129.85 1033.91,-2129.85 0,0 1033.91,1558.94 1033.91,2129.85zm0 0z"/>
     <path class="fil1" d="M27237.24 27598.34c0,685.29 -555.4,1240.69 -1240.68,1240.69 -685.29,0 -1240.69,-555.4 -1240.69,-1240.69 0,-685.28 1240.69,-2481.36 1240.69,-2481.36 0,0 1240.68,1796.08 1240.68,2481.36zm0 0z"/>
     <path class="fil1" d="M33027.11 26502.4c0,1256.19 -1018.4,2274.6 -2274.6,2274.6 -1256.19,0 -2274.59,-1018.4 -2274.59,-2274.6 0,-1256.19 2274.59,-4817.99 2274.59,-4817.99 0,0 2274.6,3561.8 2274.6,4817.99zm0 0z"/>
    </g>
    <path class="fil2" d="M32406.77 26502.4c0,-114.21 -92.57,-206.78 -206.78,-206.78 -114.21,0 -206.78,92.57 -206.78,206.78 0,684.16 -556.53,1240.69 -1240.69,1240.69 -114.2,0 -206.77,92.57 -206.77,206.78 0,114.21 92.56,206.78 206.77,206.78 912.19,0 1654.25,-742.07 1654.25,-1654.25l0.01 -0.01zm0 0z"/>
    <path class="fil2" d="M28098.77 28517.95c-109.29,164.87 -1068.32,1628.65 -1068.32,2244.14 0,706.13 568.17,1302.72 1240.69,1302.72 672.53,0 1240.69,-596.59 1240.69,-1302.72 0,-615.5 -959.03,-2079.28 -1068.32,-2244.14 -38.37,-57.75 -103.07,-92.49 -172.36,-92.49 -69.3,0 -134.02,34.74 -172.38,92.49l-0.01 0zm999.5 2244.14c0,473.66 -386.5,889.16 -827.12,889.16 -440.62,0 -827.12,-415.5 -827.12,-889.16 0,-318.65 454.19,-1150.29 827.12,-1747.37 372.94,597.08 827.12,1428.72 827.12,1747.37zm0 0z"/>
    <path class="fil2" d="M25996.56 24910.19c-67.93,0 -131.51,33.36 -170.11,89.25 -130.78,189.26 -1277.35,1870.24 -1277.35,2598.9 0,798.14 649.33,1447.48 1447.47,1447.48 798.13,0 1447.47,-649.34 1447.47,-1447.48 0,-728.66 -1146.59,-2409.64 -1277.37,-2598.9 -38.61,-55.89 -102.18,-89.25 -170.1,-89.25zm0 3722.06c-570.11,0 -1033.91,-463.8 -1033.91,-1033.91 0,-399.91 578.26,-1415.15 1033.91,-2110.62 455.64,695.38 1033.9,1710.47 1033.9,2110.62 0,570.11 -463.8,1033.91 -1033.9,1033.91zm0 0z"/>
    <path class="fil2" d="M28684.7 26295.62c0,114.21 -92.56,206.78 -206.78,206.78 -114.21,0 -206.77,-92.56 -206.77,-206.78 0,-114.21 92.56,-206.77 206.77,-206.77 114.23,0 206.78,92.56 206.78,206.77zm0 0z"/>
    <path class="fil2" d="M30926.83 21573.09c-38.05,-59.45 -103.71,-95.47 -174.31,-95.47 -70.6,0 -136.27,36.02 -174.31,95.47 -59.53,93.29 -1465.09,2301.66 -2051.82,3858.57 -40.3,106.86 13.73,226.16 120.59,266.4 106.79,40.3 226.09,-13.65 266.4,-120.52 451.86,-1199.16 1439.32,-2852.85 1839.71,-3503.25 706.93,1143.19 2067.24,3528.77 2067.24,4428.11 0,1140.21 -927.61,2067.82 -2067.81,2067.82 -923.16,0 -1741.89,-619.94 -1991.08,-1507.64 -30.85,-109.93 -144.99,-174.07 -255.01,-143.22 -109.92,30.86 -173.98,145.07 -143.21,255.01 299.11,1065.32 1281.64,1809.41 2389.3,1809.41 1368.23,0 2481.37,-1113.14 2481.37,-2481.37 0,-1139.8 -1717.26,-4007.11 -2307.07,-4929.31l0 0zm0 0z"/>
   </g>
   <g>
    <path class="fil1" d="M12203.16 29652.42l1961.63 -1151.47c760.65,-446.37 1015.47,-1425.06 569.1,-2185.71 445.97,759.98 1425.02,1015.46 2185.71,569.1 760.65,-446.37 1015.38,-1424.67 569.1,-2185.71 445.44,760.12 1424.82,1016.24 2185.71,569.11 760.65,-446.37 1015.38,-1424.68 569,-2185.33 446.37,760.65 1425.06,1015.48 2185.71,569.11l853.27 -501.06c565.28,-331.39 1014.61,-829.13 1287.69,-1424.74l1609.8 -3515.91 -216.33 -368.64 -3854.53 -309.27c-653.16,-52.08 -1306.81,97.47 -1871.81,429.35l-853.57 500.58c-760.65,446.37 -1015.47,1425.04 -569.1,2185.7 -223.19,-380.33 -579.12,-634.31 -974.77,-737.32 -395.64,-103.01 -830.22,-54.86 -1210.56,168.33 -761.04,446.27 -1015.86,1424.95 -569.1,2185.7 -446.49,-759.73 -1424.62,-1015.73 -2185.71,-569.1 -760.65,446.37 -1015.48,1425.06 -569.11,2185.71 -446.37,-760.65 -1425.06,-1015.47 -2185.71,-569.1l-1961.91 1150.99c-1140.98,669.56 -1523.16,2137.38 -853.71,3278.76l620.41 1057.21c669.98,1141.1 2137.76,1523.27 3278.78,853.72z"/>
    <path class="fil3" d="M27272.51 18494.32l883.38 -518.39c380.33,-223.19 507.68,-712.33 284.5,-1092.67l-630.7 -1074.75c-223.18,-380.33 -712.33,-507.68 -1092.66,-284.5l-883.38 518.4c-380.33,223.18 -507.68,712.32 -284.5,1092.66l630.7 1074.75c223.18,380.33 712.33,507.68 1092.66,284.5z"/>
    <path class="fil2" d="M22319.26 21872.4c190.02,-111.84 253.71,-356.42 142.26,-546.34 -111.74,-190.41 -356.31,-254.09 -546.72,-142.35 -189.92,111.44 -253.59,356.02 -142.25,546.34 111.74,190.4 356.31,254.08 546.71,142.35z"/>
    <path class="fil2" d="M6568.95 25559.94l2020.75 3443.45c780.21,1328.78 2495.98,1775.82 3825.19,995.9l1961.6 -1151.48c562.37,-330.02 903.49,-894.66 972.41,-1497.46 580.26,241.81 1233.2,203.14 1782.35,-119.13 562.17,-329.89 903.22,-894.39 972.25,-1497.16 577.15,240.63 1230.26,205.05 1782.61,-119.44 562.2,-329.92 903.24,-894.34 972.27,-1496.95 582.64,242.88 1235.22,201.86 1782.58,-119.34l853.02 -500.88c638.69,-374.41 1139.63,-928.68 1448.75,-1602.98l1384.06 -3022.88c361.27,186.44 794.48,182.64 1157.47,-30.37l883.38 -518.39c570.93,-335.04 761.88,-1068.08 426.77,-1639.07l-1616.63 -2754.88c-335.05,-570.84 -1068.08,-761.88 -1639.11,-426.78l-883.36 518.4c-362.21,212.55 -577.57,588.56 -590.99,995.65l-3314.29 -265.92c-739.25,-58.93 -1467.4,108.13 -2105.44,482.96l-853.66 500.62c-562.26,329.94 -903.36,894.43 -972.4,1497.09 -564.02,-235.15 -1218.06,-211.33 -1781.97,119.55 -563.02,330.16 -903.53,888.82 -973.67,1497.13 -563.88,-234.73 -1217.72,-211.11 -1781.19,119.55 -547.08,321.03 -901.26,870.55 -973.41,1497.85 -559.86,-233.72 -1219.05,-211.25 -1781.39,118.72l-1961.96 1151.02c-1328.8,779.87 -1775.63,2495.8 -995.95,3825.21zm18490.59 -10850.72l883.38 -518.4c190.35,-111.67 434.56,-48.04 546.25,142.23l1616.56 2754.84c111.47,190 48.48,434.3 -142.23,546.25l-883.38 518.39c-190.29,111.64 -434.54,48.09 -546.25,-142.23l0 0 -1616.6 -2754.84c-111.67,-190.35 -48.13,-434.55 142.27,-546.24zm-6864.53 1713.35l853.8 -500.7c496.33,-291.59 1062.72,-421.44 1637.59,-375.65l3647.37 292.67 1406.18 2396.29 -1523.17 3326.75c-240.44,524.43 -630.01,955.53 -1126.93,1246.81l-853.16 500.96c-569.63,334.31 -1305.01,142.83 -1639.3,-426.83l-2829.13 -4821.03c-334.28,-569.68 -142.81,-1305.02 426.75,-1639.27zm-2754.32 1616.66c571.16,-335.18 1303.68,-144.54 1638.91,426.72l2829.13 4821.05c334.21,569.46 142.78,1304.7 -426.92,1639.02 -570.43,335.21 -1304.41,144.19 -1639.11,-426.94l-2828.94 -4820.67c-335.23,-570.81 -144.53,-1304.12 426.94,-1639.18zm-2754.85 1616.6c570.4,-334.77 1303.31,-144.11 1639.02,426.46 0.08,0.14 0.15,0.25 0.24,0.39l2828.74 4820.33 0.04 0.05c0,0 0,0 -0.01,0.04 334.12,569.82 142.69,1305.22 -426.78,1639.4 -569.37,334.12 -1303.73,144.93 -1639.26,-426.82l-2828.85 -4820.55c-334.91,-570.81 -144.07,-1304.22 426.87,-1639.29zm-2754.77 1616.61c569.63,-334.31 1305.01,-142.83 1639.3,426.83l2828.86 4820.51c334.26,569.65 142.78,1305.03 -426.89,1639.33l-1961.57 1151.45c-949.22,557.06 -2175.02,237.86 -2732.35,-711.44l-2020.68 -3443.26c-556.96,-949.6 -237.8,-2175.37 711.37,-2732.4l1961.96 -1151.02z"/>
    <path class="fil2" d="M21653.19 19948.41l-1379.7 -2351.11c-111.63,-190.19 -356.2,-253.87 -546.44,-142.28 -190.17,111.6 -253.88,356.23 -142.28,546.41l1379.71 2351.11c111.63,190.17 356.2,253.85 546.44,142.28 190.17,-111.63 253.87,-356.24 142.27,-546.41z"/>
   </g>
  </g>
  <path class="fil4" d="M7223.48 33205.54l-811.22 0 0 2105.13 811.22 0c327.78,0 586.39,-94.69 774.17,-283.22 188.6,-189.37 282.49,-444.7 282.49,-766.81 0,-317.04 -95.54,-572.36 -287.43,-765.12 -191.08,-193.61 -448.04,-289.98 -769.23,-289.98zm0 -314.5c419.2,0 756.88,126.81 1013.01,381.29 256.14,254.48 384.62,585.04 384.62,993.38 0,410.88 -126.01,740.6 -378.04,988.31 -252.84,247.71 -592.14,371.14 -1019.59,371.14l-1142.31 0 0 -2734.13 1142.31 0zm1935.42 2734.13l0 -2120.34 326.14 0 0 2120.34 -326.14 0zm1389.39 -816.69l805.48 0 -400.27 -810.76 -405.21 810.76zm-746.99 816.69l1048.43 -2115.28 202.6 0 1056.66 2115.28 -345.08 0 -267.67 -537.7 -1087.96 0 -266.02 537.7 -340.97 0zm3874.98 -1805.84l-933.95 0 0 497.11 938.89 0c102.94,0 180.37,-21.14 233.07,-63.41 51.88,-41.42 78.24,-103.98 78.24,-186.84 0,-82.01 -26.36,-143.72 -78.24,-185.15 -52.7,-41.42 -131.77,-61.71 -238.01,-61.71zm108.71 806.54l-1042.66 0 0 694.95 1042.66 0c112.82,0 200.14,-30.44 262.72,-92.16 61.77,-60.87 93.07,-147.1 93.07,-257.85 0,-109.06 -31.3,-193.61 -93.07,-254.48 -62.58,-60.02 -149.9,-90.46 -262.72,-90.46zm-1363.87 999.3l0 -2110.21 1265.02 0c209.2,0 368.15,43.97 476.04,132.74 107.88,87.91 161.42,218.11 161.42,388.9 0,86.23 -16.48,162.32 -50.24,229.11 -33.77,66.79 -83.19,120.9 -147.42,162.32 114.47,65.94 200.95,146.26 258.6,241.79 58.47,94.69 87.29,202.06 87.29,320.42 0,196.99 -64.23,351.71 -191.88,464.99 -128.49,113.29 -305.56,169.94 -531.21,169.94l-1327.63 0zm2683.25 0l0 -2115.28 1932.11 0 0 309.43 -1610.92 0 0 527.55 1057.47 0 0 304.35 -1057.47 0 0 669.59 1699.87 0 0 304.35 -2021.07 0zm903.46 -2445l-221.54 0 503.2 -867.42 366.51 0 -648.17 867.42zm2066.38 2445l0 -1821.06 -869.71 0 0 -294.22 2060.62 0 0 294.22 -869.71 0 0 1821.06 -321.19 0zm1516.21 0l0 -2120.34 326.14 0 0 2120.34 -326.14 0zm3217.74 -517.41c-116.95,189.39 -270.96,333.95 -462.03,433.71 -190.25,99.76 -407.67,149.64 -650.64,149.64 -361.55,0 -659.69,-104.83 -894.41,-315.34 -233.91,-210.52 -350.86,-477.67 -350.86,-800.63 0,-323.8 116.95,-590.97 350.86,-803.17 234.72,-212.19 532.86,-317.87 894.41,-317.87 225.66,0 429.91,43.11 613.57,130.2 183.66,86.23 331.08,208.81 443.91,366.91l-256.14 182.62c-84.83,-120.06 -196.84,-213.06 -336.02,-278.15 -139.19,-65.1 -294.03,-97.23 -464.5,-97.23 -264.37,0 -482.62,76.93 -655.57,231.64 -172.95,153.87 -259.43,347.47 -259.43,579.97 0,232.49 86.48,426.1 260.25,579.97 173.78,154.72 392.02,231.66 654.75,231.66 182.84,0 345.08,-37.2 485.09,-110.76 140.01,-74.39 262.73,-189.37 368.97,-345.78l257.78 182.61zm364.02 246.87l156.47 -277.31c141.67,97.23 296.49,173.32 463.69,227.42 168,54.96 327.78,82.01 480.96,82.01 183.67,0 331.9,-38.04 444.75,-114.98 112.83,-76.94 168.84,-175 168.84,-295.05 0,-120.9 -51.9,-209.67 -154.85,-268.85 -102.94,-58.34 -265.19,-90.46 -487.56,-97.23 -375.55,-5.08 -633.33,-49.89 -773.34,-133.58 -140.02,-84.54 -210.03,-224.04 -210.03,-418.48 0,-181.77 76.6,-328.03 230.61,-438.78 154.01,-110.76 360.73,-165.7 620.16,-165.7 177.07,0 348.38,25.36 515.56,76.93 166.36,50.72 326.97,126.81 481.8,227.42l-162.25 273.92c-128.48,-88.76 -266.83,-157.25 -415.09,-206.29 -148.23,-48.19 -289.89,-72.7 -424.96,-72.7 -156.48,0 -282.49,27.89 -377.2,83.69 -94.72,56.64 -142.49,129.35 -142.49,219.81 0,93.84 47.78,160.63 143.32,200.37 95.53,39.74 261.89,59.18 498.26,59.18 328.61,0 575.69,56.64 742.88,170.78 167.18,114.13 251.18,283.22 251.18,508.1 0,199.52 -84.83,365.24 -254.48,497.97 -169.65,131.88 -389.56,197.83 -659.69,197.83 -200.14,0 -397.8,-29.59 -595.46,-87.93 -196.84,-58.33 -377.19,-141.18 -541.09,-248.55zm4758.68 270.53l-868.89 -2734.13 326.14 0 661.35 2110.21 677.81 -2110.21 296.49 0 676.17 2105.13 662.98 -2105.13 316.26 0 -866.41 2734.13 -241.31 0 -701.69 -2201.5 -695.11 2201.5 -243.77 0zm3245.74 -816.69l805.47 0 -400.26 -810.76 -405.21 810.76zm-746.99 816.69l1048.43 -2115.28 202.6 0 1056.66 2115.28 -345.09 0 -267.66 -537.7 -1087.96 0 -266.02 537.7 -340.97 0zm2927.85 0l0 -1821.06 -869.71 0 0 -294.22 2060.62 0 0 294.22 -869.71 0 0 1821.06 -321.19 0zm1511.27 0l0 -2115.28 1932.13 0 0 309.43 -1610.93 0 0 527.55 1057.47 0 0 304.35 -1057.47 0 0 669.59 1699.87 0 0 304.35 -2021.07 0zm2806.77 -1232.64l1095.37 0c111.18,0 196.01,-24.52 254.48,-74.39 58.48,-49.89 88.13,-120.9 88.13,-213.9 0,-92.15 -29.65,-163.17 -88.13,-211.36 -58.47,-49.03 -143.29,-73.54 -254.48,-73.54l-1095.37 0 0 573.2zm0 309.43l0 923.21 -321.2 0 0 -2110.21 1416.57 0c210.83,0 375.55,52.42 494.98,156.41 119.41,103.98 178.72,248.55 178.72,433.7 0,149.65 -46.95,279.85 -141.66,389.74 -93.89,109.91 -216.6,177.54 -368.15,202.06l574.04 928.29 -350.02 0 -584.74 -923.21 -898.54 0z"/>
 </g>
</svg>
